<svg width="118" height="39" viewBox="0 0 118 39" fill="none" xmlns="http://www.w3.org/2000/svg">
<g clip-path="url(#clip0_28_392)">
<path d="M63.6516 19.97C63.6495 23.9328 60.444 27.0839 56.5508 27.0946C56.5432 27.095 56.5345 27.095 56.5266 27.095L52.0718 27.095C48.1427 27.095 44.9468 23.8985 44.9468 19.97C44.9465 16.0412 48.1431 12.8447 52.0718 12.845L54.5316 12.845C55.1839 12.845 55.5288 13.6235 55.0847 14.1012C54.5188 14.7101 54.034 15.4056 53.6585 16.1699C53.5313 16.4287 53.2708 16.5951 52.9825 16.5951L52.1149 16.5951C50.257 16.5951 48.7153 18.0785 48.6971 19.9363C48.6787 21.8125 50.1998 23.3449 52.0718 23.3449L56.5262 23.3452C58.3951 23.3452 59.9015 21.831 59.9015 19.97C59.9012 19.7249 59.8728 19.5062 59.8427 19.3432C59.8213 19.228 59.8272 19.1095 59.8597 18.9969C59.8923 18.8844 59.9507 18.7811 60.0303 18.6951C60.3674 18.3317 60.8524 18.0949 61.406 18.0949L62.8017 18.0949C63.1677 18.0949 63.4773 18.3595 63.5414 18.7198C63.6147 19.1325 63.6516 19.5508 63.6516 19.97V19.97ZM72.9946 19.9698C72.9946 16.0412 69.7987 12.8448 65.8696 12.8448L61.4148 12.8448C61.4068 12.8448 61.3982 12.8448 61.3906 12.8451C57.4974 12.8559 54.2919 16.007 54.2898 19.9698C54.2898 20.3889 54.3267 20.8072 54.4 21.2199C54.4641 21.5802 54.7737 21.8448 55.1397 21.8448L56.5354 21.8448C57.0889 21.8448 57.5739 21.6079 57.9111 21.2446C57.9907 21.1586 58.0491 21.0553 58.0817 20.9428C58.1142 20.8302 58.12 20.7116 58.0986 20.5965C58.0686 20.4335 58.0401 20.2148 58.0399 19.9697C58.0399 18.1087 59.5463 16.5945 61.4151 16.5945L65.8696 16.5948C67.7416 16.5948 69.2627 18.1272 69.2443 20.0033C69.2261 21.8612 67.6844 23.3446 65.8265 23.3446L64.9589 23.3446C64.6706 23.3446 64.4101 23.511 64.2829 23.7698C63.9074 24.5341 63.4226 25.2296 62.8566 25.8385C62.4126 26.3163 62.7575 27.0947 63.4098 27.0947L65.8696 27.0947C69.7983 27.0951 72.9949 23.8985 72.9946 19.9698V19.9698Z" fill="black"/>
</g>
<g clip-path="url(#clip1_28_392)">
<path d="M21.9632 23.895C21.3061 22.565 20.4614 21.995 19.8983 21.615C19.2412 21.33 18.7719 21.33 18.7719 21.33C18.7719 21.33 16.8947 21.33 15.5807 23.895C14.1728 26.555 11.2632 28.645 7.6965 27.505C5.91317 26.935 4.78685 26.175 3.75439 25.89C4.41141 29.595 6.57018 32.16 9.38597 33.87C12.2018 35.58 15.6746 36.34 18.7719 36.34C24.9667 36.34 32.5693 33.11 33.7895 25.795C32.757 26.175 31.6307 26.84 29.8474 27.41C26.2807 28.645 23.3711 26.555 21.9632 23.895ZM22.9956 32.35C22.8079 32.825 22.5263 33.205 22.2447 33.585C21.6816 34.345 20.5553 35.295 18.6781 35.295C16.8009 35.295 15.6746 34.345 15.1114 33.585C14.8298 33.205 14.6421 32.825 14.4544 32.35H14.3605C11.6386 32.35 11.8263 30.07 11.8263 30.07C11.8263 30.07 12.7649 31.115 14.8298 30.83C16.8947 30.545 17.4579 29.88 17.4579 29.595C17.5518 29.31 17.4579 28.74 17.4579 28.74C17.4579 28.74 15.393 28.17 15.2991 25.985C15.2991 25.89 15.2991 25.89 15.2991 25.795C15.2991 24.465 16.8009 23.42 18.5842 23.42C20.3675 23.42 21.8693 24.465 21.8693 25.795C21.8693 25.89 21.8693 25.89 21.8693 25.985C21.6816 28.17 19.7105 28.74 19.7105 28.74C19.7105 28.74 19.6167 29.31 19.7105 29.595C19.8044 29.88 20.3675 30.545 22.3386 30.83C24.3097 31.115 25.3421 30.07 25.3421 30.07C25.3421 30.07 25.7175 32.35 22.9956 32.35Z" fill="#18171F"/>
<path d="M19.9921 32.73C19.8983 32.73 19.7106 32.635 19.6167 32.73C19.7106 32.635 19.8983 32.635 19.9921 32.73Z" fill="black"/>
<path d="M17.1763 32.92C17.364 32.73 17.6456 32.635 17.9271 32.635C17.6456 32.635 17.364 32.73 17.1763 32.92Z" fill="black"/>
<path d="M35.5726 14.49C35.291 11.64 34.634 8.40999 33.4138 5.93999C33.3199 5.74999 33.2261 5.55999 33.1322 5.36999C32.9445 4.98999 32.6629 4.51499 32.3813 4.13499C32.2875 4.03999 32.2875 4.03999 32.1936 3.94499C31.7243 3.46999 31.1612 3.08999 30.4103 2.89999C29.0024 2.61499 26.8436 3.08999 23.8401 6.69999C23.934 6.79499 24.0278 6.98499 24.0278 7.07999C24.0278 7.17499 24.1217 7.17499 24.1217 7.17499C24.2156 7.26999 24.2155 7.26999 24.3094 7.36499C24.4033 7.45999 24.4971 7.64999 24.591 7.74499C24.591 7.74499 23.8401 7.17499 21.9629 6.88999C21.3998 6.79499 20.8366 6.69999 20.1796 6.69999C19.898 6.69999 19.3348 6.69999 18.7717 6.69999C18.6778 6.69999 18.584 6.69999 18.4901 6.69999H18.3963C18.3024 6.69999 18.2085 6.69999 18.1147 6.69999H18.0208C17.927 6.69999 17.8331 6.69999 17.7392 6.69999H17.6454C17.5515 6.69999 17.4577 6.69999 17.3638 6.69999H17.2699H16.9884H16.8945C16.8006 6.69999 16.7068 6.69999 16.6129 6.69999H16.5191C16.4252 6.69999 16.3313 6.69999 16.3313 6.69999H16.2375C16.1436 6.69999 16.0498 6.69999 16.0498 6.69999H15.9559C15.862 6.69999 15.7682 6.69999 15.7682 6.69999H15.6743C15.5805 6.69999 15.5805 6.69999 15.4866 6.69999H15.3927C15.2989 6.69999 15.2989 6.69999 15.205 6.69999H15.1112C15.0173 6.69999 15.0173 6.69999 14.9234 6.69999H14.8296C14.7357 6.69999 14.7357 6.69999 14.6419 6.69999H14.548H14.3603H14.2664H14.1726H14.0787H13.9848H13.891H13.7971H13.7033H13.6094H13.5155H13.4217H13.3278H13.234H13.1401H13.0463C12.577 6.88999 12.3892 6.98499 12.3892 6.98499C12.4831 6.79499 12.577 6.69999 12.6708 6.60499C12.7647 6.50999 12.7647 6.41499 12.8585 6.41499C12.9524 6.22499 13.0463 6.12999 13.1401 5.93999C13.1401 5.93999 13.1401 5.93999 13.1401 5.84499C13.0463 5.74999 13.0463 5.74999 12.9524 5.65499L12.8585 5.55999L12.7647 5.46499L12.6708 5.36999L12.577 5.27499L12.4831 5.17999L12.3892 5.08499L12.2954 4.98999L12.2015 4.89499L12.1077 4.79999L12.0138 4.70499L11.9199 4.60999L12.2015 5.08499L12.1077 4.98999L12.0138 4.89499L11.9199 4.79999L11.8261 4.70499L11.7322 4.60999L11.6384 4.51499L11.5445 4.41999C11.5445 4.41999 11.4506 4.41999 11.4506 4.32499L11.3568 4.22999C11.3568 4.22999 11.2629 4.22999 11.2629 4.13499L11.1691 4.03999L11.0752 3.94499L10.9813 3.84999L10.8875 3.75499L10.7936 3.65999C10.7936 3.65999 10.6998 3.65999 10.6998 3.56499C10.6998 3.56499 10.6059 3.56499 10.6059 3.46999L10.3243 3.65999C10.3243 3.65999 10.2305 3.65999 10.2305 3.56499C10.2305 3.56499 10.1366 3.56499 10.1366 3.46999C10.1366 3.46999 10.0427 3.46999 10.0427 3.37499H9.94888C9.94888 3.37499 9.85502 3.37499 9.85502 3.27999H9.76116H9.6673H9.57344H9.47959H9.38573H9.29187H9.19801H9.10415H9.01029H8.91643H8.82257H8.72871H8.63485L8.72871 2.89999H8.63485H8.54099H8.44713H8.35327H8.25941H8.16555H8.07169H7.97783H7.88397H7.79011C7.79011 2.89999 7.79011 2.89999 7.69625 2.89999C7.69625 2.89999 7.69625 2.89999 7.60239 2.89999H7.69625H7.60239L7.50853 2.80499H7.41467H7.32081H7.22695V2.89999C7.22695 2.89999 7.22695 2.89999 7.13309 2.89999V2.89999H7.03923C7.03923 2.89999 7.03923 2.89999 6.94537 2.89999H6.85151H6.75765H6.6638H6.56994V2.99499H6.47608H6.38222H6.28836H6.1945H6.10064H6.00678H5.91292C5.7252 3.46999 5.53748 3.65999 5.34976 3.84999C5.2559 3.94499 5.2559 4.03999 5.16204 4.13499C4.97432 4.41999 4.69274 4.79999 4.50502 5.27499C4.3173 5.46499 4.22344 5.65499 4.12958 5.93999C3.37871 7.55499 2.81555 9.35999 2.44011 11.26C2.25239 12.4 2.06467 13.445 1.97081 14.49C1.87695 14.775 1.87695 15.06 1.87695 15.345C1.87695 15.44 1.97081 15.44 2.06467 15.535C2.15853 15.63 2.25239 15.63 2.34625 15.63C2.44011 15.63 2.53397 15.63 2.62783 15.63C3.47257 15.44 3.56643 14.3 3.56643 14.3C3.37871 10.12 5.16204 6.98499 6.1945 5.55999C6.28836 5.46499 6.28836 5.36999 6.38222 5.36999C6.47608 5.17999 6.75765 5.08499 6.94537 4.98999C7.13309 4.89499 7.41467 4.98999 7.60239 4.98999C7.97783 5.17999 8.35327 5.46499 8.63485 5.74999C8.82257 5.93999 8.91643 6.03499 9.01029 6.22499C9.6673 6.98499 9.94888 7.93499 10.0427 8.50499C10.0427 8.59999 10.0427 8.78999 10.0427 8.88499C9.94888 8.97999 9.85502 9.07499 9.76116 9.16999C9.29187 9.45499 8.82257 9.73999 8.44713 10.12C8.35327 10.215 3.00327 16.96 3.66029 24.845C3.66029 24.94 3.66029 25.13 3.66029 25.225C3.75415 25.51 3.75415 25.7 3.75415 25.89C4.7866 26.27 5.91292 26.935 7.69625 27.505C11.2629 28.645 14.1726 26.555 15.5805 23.895C16.8945 21.33 18.7717 21.33 18.7717 21.33C18.7717 21.33 19.241 21.33 19.898 21.615C20.555 21.9 21.3059 22.565 21.9629 23.895C23.3708 26.555 26.2805 28.645 29.8471 27.505C31.6305 26.935 32.7568 26.175 33.7892 25.89C33.7892 25.7 33.8831 25.51 33.8831 25.32C33.8831 25.225 33.8831 25.035 33.8831 24.94C34.5401 16.96 29.1901 10.31 29.0963 10.215C28.627 9.83499 28.1577 9.54999 27.6884 9.35999C27.5945 9.26499 27.5006 9.16999 27.4068 9.07499C27.3129 8.97999 27.3129 8.78999 27.4068 8.69499C27.5945 8.12499 27.8761 7.17499 28.4392 6.41499C28.5331 6.22499 28.7208 6.12999 28.8147 5.93999C29.0963 5.65499 29.4717 5.36999 29.941 5.17999C30.1287 5.08499 30.4103 5.08499 30.598 5.17999C30.7857 5.27499 30.9734 5.36999 31.1612 5.55999C31.255 5.65499 31.255 5.65499 31.3489 5.74999C32.2875 7.17499 34.1647 10.31 34.0708 14.49C34.0708 14.49 34.1647 15.63 35.0094 15.82C35.1033 15.82 35.1971 15.82 35.291 15.82C35.3848 15.82 35.4787 15.725 35.5726 15.725C35.6664 15.725 35.6664 15.63 35.7603 15.535C35.6664 15.06 35.6664 14.775 35.5726 14.49Z" fill="#E70C00"/>
<path d="M12.3897 15.915C12.5775 16.2 12.7652 16.485 13.0468 16.675C13.7038 17.245 14.5485 17.435 15.2055 17.055C16.0503 16.58 16.1441 15.25 15.4871 14.11V14.015C14.8301 12.875 13.6099 12.4 12.7652 12.875H12.6713C11.7327 13.445 11.6389 14.775 12.3897 15.915Z" fill="#18171F"/>
<path d="M5.63189 11.64C6.94593 9.36 9.19856 6.225 6.19505 5.56C5.25645 6.985 3.37926 10.12 3.47312 14.3C3.47312 14.3 4.31786 13.92 5.63189 11.64Z" fill="#18171F"/>
<path d="M8.63525 5.75C8.82297 5.94 8.91683 6.035 9.01069 6.225C8.91683 6.035 8.82297 5.94 8.63525 5.75Z" fill="#18171F"/>
<path d="M8.44722 10.12C8.91652 9.74001 9.38581 9.45501 9.85511 9.26501C9.94897 9.17001 10.0428 9.07501 10.1367 8.98001C10.2306 8.88501 10.2306 8.69501 10.1367 8.60001C9.94897 8.03001 9.66739 7.08001 9.10424 6.32001C8.91652 6.13001 8.82266 5.94001 8.63494 5.75001C8.35336 5.46501 7.97792 5.18001 7.50862 4.99001C7.3209 4.89501 7.03932 4.89501 6.8516 4.99001C6.66388 4.99001 6.47616 5.18001 6.28845 5.37001C6.28845 5.37001 6.19459 5.46501 6.19459 5.56001C9.1981 6.22501 6.94546 9.45501 5.63143 11.64C4.31739 13.92 3.47266 14.3 3.47266 14.3C3.47266 14.87 3.56652 15.535 3.66038 16.105C3.66038 16.2 3.66038 16.2 3.75424 16.2L3.84809 16.295C3.94195 16.295 3.94195 16.295 4.03581 16.295L4.12967 16.2C4.69283 14.775 6.10073 11.925 8.44722 10.12Z" fill="#DBBDBF"/>
<path d="M3.28524 25.7C3.47296 25.7 3.66068 25.795 3.75453 25.795C3.75453 25.7 3.75454 25.51 3.66068 25.225C3.66068 25.13 3.66068 24.94 3.66068 24.845C2.9098 16.865 8.35366 10.215 8.44752 10.12C6.10103 11.925 4.69313 14.775 4.12997 16.2L4.03611 16.295C4.03611 16.295 3.94225 16.295 3.84839 16.295C3.75453 16.295 3.75453 16.295 3.75453 16.2L3.66068 16.105C3.56682 15.535 3.47296 14.87 3.47296 14.3C3.47296 14.3 3.3791 15.44 2.53436 15.63C2.4405 15.63 2.34664 15.63 2.25278 15.63C2.15892 15.63 2.06506 15.535 1.9712 15.535C1.87734 15.535 1.87734 15.44 1.78348 15.345C1.59576 17.435 1.59576 19.24 1.59576 20.19C1.59576 20.57 1.59576 20.855 1.59576 20.855V20.95C1.59576 20.95 1.59576 20.95 1.59576 21.045C1.59576 21.045 1.12646 22.66 1.12646 24.845C1.12646 25.13 1.12646 25.32 1.12646 25.605C1.12646 25.795 1.12646 25.985 1.12646 26.175C1.9712 25.7 2.62822 25.605 3.28524 25.7Z" fill="#A50400"/>
<path d="M15.2054 31.21C16.9887 30.925 17.9273 30.26 18.3028 29.88V28.55C17.7396 28.455 17.2703 28.265 16.801 27.98L16.7071 27.885C16.6133 27.79 16.6133 27.79 16.5194 27.695C15.9563 27.22 15.5808 26.555 15.487 25.985C15.6747 28.17 17.6457 28.74 17.6457 28.74C17.6457 28.74 17.7396 29.31 17.6457 29.595C17.5519 29.88 16.9887 30.545 15.0177 30.83C12.9528 31.115 12.0142 30.07 12.0142 30.07C12.0142 30.07 12.8589 31.59 15.2054 31.21Z" fill="#DBBDBF"/>
<path d="M13.1405 7.46001C13.0466 7.55501 12.9527 7.74501 12.8589 7.84001C13.0466 7.74501 13.2343 7.65001 13.5159 7.55501H13.6098H13.7036H13.7975H13.8913H13.9852H14.0791H14.1729C14.1729 7.55501 14.1729 7.55501 14.2668 7.55501H14.3606H14.4545H14.5484H14.6422H14.7361H14.8299H15.0177H15.1115C15.2054 7.55501 15.2054 7.55501 15.2992 7.55501H15.3931C15.487 7.55501 15.487 7.55501 15.5808 7.55501H15.6747C15.7685 7.55501 15.7685 7.55501 15.8624 7.55501H15.9563C16.0501 7.55501 16.0501 7.55501 16.144 7.55501H16.2378C16.3317 7.55501 16.3317 7.55501 16.4256 7.55501H16.5194C16.6133 7.55501 16.7071 7.55501 16.7071 7.55501H16.801C16.8949 7.55501 16.9887 7.55501 16.9887 7.55501H17.0826C17.1764 7.55501 17.2703 7.55501 17.3642 7.55501H17.458H17.7396H17.8334C17.9273 7.55501 18.0212 7.55501 18.115 7.55501H18.2089C18.3027 7.55501 18.3966 7.55501 18.4905 7.55501H18.5843C18.6782 7.55501 18.772 7.55501 18.8659 7.55501H18.9598C19.0536 7.55501 19.1475 7.55501 19.2413 7.55501C19.8045 7.55501 20.2738 7.55501 20.837 7.65001C21.4001 7.65001 21.9633 7.74501 22.6203 7.84001C24.4036 8.22001 25.2484 8.69501 25.2484 8.69501C25.1545 8.50501 25.0606 8.41001 24.9668 8.31501C24.8729 8.22001 24.8729 8.12501 24.7791 8.12501C24.7791 8.12501 24.4975 7.84001 23.8405 7.65001C22.9957 7.27001 21.494 6.79501 19.3352 6.79501C17.1764 6.79501 15.6747 7.27001 14.8299 7.65001C14.2668 7.93501 13.8913 8.12501 13.8913 8.12501C13.3282 7.27001 13.2343 7.36501 13.1405 7.46001Z" fill="#FF3E39"/>
<path d="M5.3501 3.85001C5.53782 3.66001 5.72554 3.47001 6.00712 3.28001H6.10098H6.19483H6.28869H6.38255H6.47641H6.57027H6.66413H6.75799H6.85185H6.94571H7.03957H7.13343H7.22729C7.22729 3.28001 7.22729 3.28001 7.32115 3.28001H7.41501H7.50887H7.60273C7.60273 3.28001 7.60273 3.28001 7.69659 3.28001H7.79045H7.88431H7.97817H8.07203H8.16589H8.25975H8.35361H8.44747H8.54133H8.63519C8.63519 3.28001 8.63519 3.28001 8.72905 3.28001H8.8229H8.91676H9.01062H9.10448H9.19834H9.2922L8.44747 2.90001H8.54133H8.63519H8.72905H8.8229H8.91676H9.01062H9.10448H9.19834H9.2922H9.38606H9.47992H9.57378H9.66764H9.7615H9.85536H9.94922H10.0431C10.0431 2.90001 10.1369 2.90001 10.1369 2.99501H10.2308C10.2308 2.99501 10.3247 2.99501 10.3247 3.09001C10.3247 3.09001 10.4185 3.09001 10.4185 3.18501C10.4185 3.18501 10.5124 3.18501 10.5124 3.28001L10.6062 3.37501C10.6062 3.37501 10.7001 3.37501 10.7001 3.47001C10.7001 3.47001 10.794 3.47001 10.794 3.56501L10.8878 3.66001L10.9817 3.75501L11.0755 3.85001L11.1694 3.94501L11.2633 4.04001C11.2633 4.04001 11.3571 4.04001 11.3571 4.13501L11.451 4.23001C11.451 4.23001 11.5448 4.23001 11.5448 4.32501L11.6387 4.42001C11.6387 4.42001 11.7326 4.42001 11.7326 4.51501L11.8264 4.61001L11.9203 4.70501L12.0141 4.80001L12.108 4.89501L12.2019 4.99001L12.2957 5.08501L12.3896 5.18001L12.4834 5.27501L12.5773 5.37001L12.6712 5.46501L12.765 5.56001L12.8589 5.65501L12.9527 5.75001L13.0466 5.84501L13.1404 5.94001L13.2343 6.03501L13.3282 6.13001C13.422 6.22501 13.422 6.22501 13.5159 6.32001C13.7975 5.94001 14.1729 5.56001 14.5483 5.27501C13.2343 3.94501 11.9203 2.90001 10.7001 2.33001C10.6062 2.23501 10.5124 2.23501 10.4185 2.23501C10.4185 2.23501 10.3247 2.23501 10.3247 2.14001C10.3247 2.14001 10.3247 2.14001 10.2308 2.14001H10.1369C10.0431 2.14001 10.0431 2.14001 9.94922 2.04501C9.2922 1.85501 8.72905 1.76001 8.16589 1.76001C7.69659 1.76001 7.13343 1.95001 6.75799 2.14001C6.38255 2.80501 5.8194 3.28001 5.3501 3.85001Z" fill="#FF3E39"/>
<path d="M22.3383 16.96C22.9953 17.34 23.8401 17.15 24.4971 16.58C24.6848 16.39 24.9664 16.2 25.0602 15.915C25.0602 15.915 25.0602 15.915 25.0602 15.82C25.7173 14.68 25.6234 13.35 24.7787 12.78C24.7787 12.78 24.7787 12.78 24.6848 12.78C23.8401 12.305 22.6199 12.78 21.9629 13.92C21.9629 13.92 21.9629 13.92 21.9629 14.015C21.3997 15.155 21.4936 16.485 22.3383 16.96Z" fill="#18171F"/>
<path d="M31.9124 11.64C33.2264 13.825 33.9773 14.205 34.0711 14.3C34.165 10.12 32.3817 6.985 31.3492 5.56C28.3457 6.225 30.5983 9.455 31.9124 11.64Z" fill="#18171F"/>
<path d="M28.5332 6.225C28.6271 6.035 28.8148 5.94 28.9086 5.75C28.7209 5.94 28.6271 6.035 28.5332 6.225Z" fill="#18171F"/>
<path d="M20.4616 33.11C20.4616 33.015 20.3677 32.92 20.18 32.825C20.18 32.825 20.18 32.825 20.0861 32.825C20.0861 32.825 20.0861 32.825 19.9923 32.825C19.8984 32.825 19.7107 32.73 19.6168 32.825C19.6168 32.825 19.6168 32.825 19.523 32.825H19.4291C19.4291 32.825 19.4291 32.825 19.3353 32.825C19.2414 32.825 19.1475 32.92 19.0537 33.015C18.9598 33.11 18.866 33.205 18.866 33.3C18.6782 32.92 18.3967 32.73 18.0212 32.73C17.7396 32.73 17.4581 32.825 17.2703 33.015C17.1765 33.11 17.1765 33.11 17.1765 33.205C17.1765 33.3 17.0826 33.395 17.1765 33.585C17.1765 33.68 17.2703 33.775 17.3642 33.87C17.4581 33.965 17.5519 34.06 17.6458 34.06C18.1151 34.25 18.4905 34.345 18.9598 34.25C19.4291 34.25 19.8984 34.155 20.2739 34.06C20.18 33.965 20.6493 33.68 20.4616 33.11Z" fill="#FF9C9C"/>
<path d="M33.508 16.105L33.6018 16.2C33.6018 16.2 33.6957 16.2 33.7896 16.2C33.8834 16.2 33.8834 16.2 33.8834 16.105L33.9773 16.01C34.0711 15.44 34.165 14.775 34.165 14.205C34.165 14.205 33.3203 13.825 32.0062 11.545C30.6922 9.265 28.4396 6.13 31.4431 5.46501C31.3492 5.37001 31.3492 5.27501 31.2554 5.27501C31.1615 5.08501 30.8799 4.99001 30.6922 4.89501C30.5045 4.80001 30.2229 4.89501 30.0352 4.89501C29.6597 5.08501 29.2843 5.37001 28.9089 5.65501C28.7212 5.84501 28.6273 5.94001 28.5334 6.13001C27.8764 6.89001 27.5948 7.84 27.501 8.41C27.501 8.505 27.501 8.695 27.501 8.79C27.501 8.885 27.6887 8.98 27.7826 9.075C28.2519 9.36 28.7212 9.645 29.1905 9.93C31.4431 11.925 32.851 14.775 33.508 16.105Z" fill="#DBBDBF"/>
<path d="M35.6665 15.345C35.6665 15.44 35.5726 15.44 35.4788 15.535C35.3849 15.63 35.291 15.63 35.1972 15.63C35.1033 15.63 35.0095 15.63 34.9156 15.63C34.1647 15.44 33.977 14.3 33.977 14.3C33.977 14.87 33.8831 15.535 33.7893 16.105C33.7893 16.2 33.7893 16.2 33.6954 16.2L33.6016 16.295C33.5077 16.295 33.5077 16.295 33.4138 16.295L33.32 16.2C32.7568 14.87 31.3489 11.925 29.0024 10.12C29.0963 10.215 34.4463 16.96 33.7893 24.845C33.7893 24.94 33.7893 25.13 33.7893 25.225C33.7893 25.415 33.6954 25.605 33.6954 25.795C33.8831 25.7 34.0709 25.7 34.1647 25.7C34.8217 25.605 35.4788 25.7 36.2296 26.175C36.2296 25.985 36.2296 25.795 36.2296 25.605C36.2296 25.32 36.2296 25.13 36.2296 24.845C36.2296 22.66 35.7603 21.045 35.7603 21.045C35.7603 21.045 35.7603 21.045 35.7603 20.95V20.855C35.7603 20.855 35.7603 20.57 35.7603 20.19C35.9481 19.24 35.8542 17.435 35.6665 15.345Z" fill="#A50400"/>
<path d="M21.0245 27.695C20.9307 27.79 20.9307 27.79 20.8368 27.885L20.743 27.98C20.2737 28.265 19.8044 28.455 19.2412 28.55V29.88C19.7105 30.26 20.5552 30.925 22.3386 31.21C24.6851 31.495 25.5298 30.07 25.5298 30.07C25.5298 30.07 24.5912 31.115 22.5263 30.83C20.4614 30.545 19.8982 29.88 19.8982 29.595C19.8044 29.31 19.8982 28.74 19.8982 28.74C19.8982 28.74 21.9631 28.17 22.057 25.985C21.9631 26.555 21.5877 27.22 21.0245 27.695Z" fill="#DBBDBF"/>
<path d="M30.5041 2.89999C31.1611 2.99499 31.8181 3.37499 32.1936 3.94499C31.7243 3.37499 31.1611 2.89999 30.598 2.61499C30.1287 2.42499 29.6594 2.23499 29.1901 2.23499C28.6269 2.23499 28.0638 2.32999 27.4067 2.51999C27.3129 2.51999 27.3129 2.51999 27.219 2.61499C27.219 2.61499 27.219 2.61499 27.1252 2.61499C27.1252 2.61499 27.1252 2.61499 27.0313 2.61499C26.9374 2.61499 26.8436 2.70999 26.7497 2.70999H26.6559C25.4357 3.27999 24.1217 4.32499 22.8076 5.65499C23.1831 5.93998 23.5585 6.22498 23.8401 6.69998C26.9374 3.08999 29.0962 2.61499 30.5041 2.89999Z" fill="#FF3E39"/>
<path d="M18.7719 32.445C17.2701 31.875 16.5193 32.92 16.3315 33.205C16.6131 33.49 16.9886 33.775 17.4579 33.965C17.364 33.87 17.2701 33.87 17.1763 33.775C17.0824 33.68 17.0824 33.585 16.9886 33.49C16.9886 33.395 16.9886 33.205 16.9886 33.11C16.9886 33.015 17.0824 33.015 17.0824 32.92C17.2701 32.73 17.5517 32.635 17.8333 32.635C18.2087 32.635 18.5842 32.825 18.678 33.205C18.678 33.11 18.7719 33.015 18.8658 32.92C18.9596 32.825 19.0535 32.73 19.1473 32.73C19.1473 32.73 19.1473 32.73 19.2412 32.73C19.2412 32.73 19.2412 32.73 19.3351 32.73C19.4289 32.73 19.6166 32.73 19.7105 32.73C19.7105 32.73 19.7105 32.73 19.8044 32.73C19.8044 32.73 19.8044 32.73 19.8982 32.73C19.9921 32.825 20.0859 32.92 20.1798 33.015C20.3675 33.585 19.8982 33.87 19.8044 33.87C20.1798 33.68 20.5552 33.49 20.9307 33.11C21.0245 32.92 20.2736 31.97 18.7719 32.445Z" fill="#E06E6E"/>
<path d="M8.4473 35.77C9.3859 36.245 10.4184 36.625 11.4508 36.91C12.7648 37.29 14.0789 37.575 15.3929 37.67C15.9561 37.765 16.5192 37.765 17.0824 37.86C17.5517 37.86 18.021 37.86 18.4903 37.955C18.5841 37.955 18.678 37.955 18.7719 37.955C18.9596 37.955 19.1473 37.955 19.335 37.955C19.4289 37.955 19.4289 37.955 19.5227 37.955C20.0859 37.955 20.6491 37.955 21.1184 37.86C21.2122 37.86 21.2122 37.86 21.3061 37.86H21.4938H21.5877C21.6815 37.86 21.6815 37.86 21.7754 37.86C24.9666 37.48 27.7824 36.625 30.1289 35.295C30.1289 35.295 30.2227 35.295 30.2227 35.2L30.3166 35.105C31.1613 34.63 31.9122 34.06 32.6631 33.395C33.2262 32.92 33.6955 32.445 34.1648 31.875C34.2587 31.78 34.2587 31.78 34.3526 31.685C34.6341 31.305 34.9157 30.925 35.1973 30.545C35.5727 29.975 35.7605 29.31 35.9482 28.645C36.1359 27.98 36.3236 27.22 36.4175 26.555C36.4175 26.46 36.4175 26.365 36.4175 26.27C35.5727 25.795 35.0096 25.7 34.3526 25.795C34.1648 25.795 33.9771 25.89 33.8833 25.89C32.6631 33.205 25.0605 36.435 18.8657 36.435C15.7684 36.435 12.2955 35.675 9.47976 33.965C6.66397 32.255 4.41133 29.595 3.84818 25.985C3.66046 25.89 3.47274 25.89 3.37888 25.89C2.72186 25.795 2.06484 25.89 1.31396 26.365C1.31396 26.46 1.31396 26.555 1.31396 26.65C1.40782 27.41 1.50168 28.075 1.78326 28.74C1.78326 29.025 1.87712 29.5 2.06484 29.88C2.1587 30.07 2.25256 30.26 2.34642 30.545C2.34642 30.545 2.34642 30.64 2.44028 30.64C2.628 31.02 2.90958 31.4 3.19116 31.78C4.59905 33.395 6.38239 34.725 8.4473 35.77Z" fill="#DBBDBF"/>
<path d="M25.5298 30.07C25.5298 30.07 24.685 31.59 22.3385 31.21C20.5552 30.925 19.6166 30.26 19.2412 29.88V28.55C19.8043 28.455 20.2736 28.265 20.7429 27.98L20.8368 27.885C20.9307 27.79 20.9307 27.79 21.0245 27.695C21.5877 27.22 21.9631 26.555 22.057 25.985C22.057 25.89 22.057 25.89 22.057 25.795C22.057 24.465 20.5552 23.42 18.7719 23.42C16.9885 23.42 15.4868 24.465 15.4868 25.795C15.4868 25.89 15.4868 25.89 15.4868 25.985C15.5807 26.555 15.9561 27.22 16.5192 27.695C16.6131 27.79 16.6131 27.79 16.707 27.885L16.8008 27.98C17.2701 28.265 17.7394 28.455 18.3026 28.55V29.88C17.8333 30.26 16.9885 30.925 15.2052 31.21C12.8587 31.495 12.014 30.07 12.014 30.07C12.014 30.07 11.8263 32.35 14.5482 32.35H14.6421C14.8298 32.825 15.0175 33.205 15.2991 33.585C15.8622 34.345 16.9885 35.295 18.8657 35.295C20.7429 35.295 21.8692 34.345 22.4324 33.585C22.714 33.205 22.9017 32.825 23.0894 32.35H23.1833C25.7175 32.35 25.5298 30.07 25.5298 30.07ZM20.0859 33.965C19.6166 34.155 19.2412 34.25 18.7719 34.155C18.3026 34.155 17.8333 34.06 17.4578 33.965C17.364 33.87 17.2701 33.87 17.1763 33.775C17.2701 33.87 17.364 33.965 17.4578 33.965C17.0824 33.775 16.707 33.585 16.3315 33.205C16.5192 32.92 17.2701 31.97 18.7719 32.445C20.2736 31.875 21.0245 32.92 21.2122 33.205C20.9307 33.49 20.5552 33.775 20.0859 33.965Z" fill="black"/>
<path d="M25.2481 37.1H28.627C28.627 37.1 28.1577 37.29 27.97 37.385C27.7823 37.48 27.5946 37.48 27.4069 37.575C27.2191 37.67 27.0314 37.67 26.8437 37.765H26.7498C26.5621 37.86 26.4683 37.86 26.2805 37.86L26.0928 38.05C25.999 38.05 25.8112 38.145 25.7174 38.145C25.6235 38.145 25.6235 38.145 25.5297 38.145C25.3419 38.145 25.1542 38.24 24.9665 38.24C24.7788 38.24 24.5911 38.335 24.4033 38.335C24.3095 38.335 24.3095 38.335 24.2156 38.335C24.1218 38.335 23.934 38.43 23.8402 38.43H23.6525C23.4647 38.43 23.277 38.525 23.0893 38.525C22.4323 38.62 21.6814 38.715 20.9305 38.715C20.2735 38.905 19.5226 39 18.7718 39C17.3639 39 15.8621 38.905 14.4542 38.715C14.2665 38.715 14.0788 38.62 13.8911 38.62H13.7033C13.6095 38.62 13.4218 38.525 13.3279 38.525C13.234 38.525 13.234 38.525 13.1402 38.525C12.9525 38.525 12.7647 38.43 12.577 38.43C12.3893 38.43 12.2016 38.335 12.0139 38.335C11.92 38.335 11.92 38.335 11.8262 38.335C11.7323 38.335 11.5446 38.24 11.4507 38.24L11.263 37.955C11.0753 37.955 10.9814 37.86 10.7937 37.86H10.6998C10.3244 37.765 9.94896 37.575 9.57352 37.48C9.3858 37.29 9.10422 37.195 8.9165 37.1H12.2955C13.3279 37.385 14.3604 37.575 15.3928 37.67C15.956 37.765 16.5191 37.765 17.0823 37.86C17.5516 37.86 18.0209 37.86 18.4902 37.955C18.584 37.955 18.6779 37.955 18.7718 37.955C18.9595 37.955 19.1472 37.955 19.3349 37.955C19.4288 37.955 19.4288 37.955 19.5226 37.955C20.0858 37.955 20.649 37.955 21.1183 37.86C21.2121 37.86 21.2121 37.86 21.306 37.86H21.4937H21.5876C21.6814 37.86 21.6814 37.86 21.7753 37.86C22.9955 37.575 24.1218 37.385 25.2481 37.1Z" fill="black"/>
<path d="M35.1035 32.35C33.6018 34.155 31.8184 35.58 29.5658 36.625H26.75C27.9702 36.245 29.0965 35.77 30.1289 35.105C30.1289 35.105 30.2228 35.105 30.2228 35.01L30.3167 34.915C31.1614 34.44 31.9123 33.87 32.6632 33.205C33.2263 32.73 33.6956 32.255 34.1649 31.685C34.2588 31.59 34.2588 31.59 34.3526 31.495C34.6342 31.115 34.9158 30.735 35.1974 30.355C35.5728 29.785 35.7605 29.12 35.9482 28.455C36.136 27.79 36.3237 27.03 36.4175 26.365C36.4175 26.27 36.4175 26.175 36.4175 26.08C36.4175 25.89 36.4175 25.7 36.4175 25.51C36.4175 25.225 36.4175 25.035 36.4175 24.75C36.4175 22.565 35.9482 20.95 35.9482 20.95C35.9482 20.95 35.9482 20.95 35.9482 20.855V20.76C35.9482 20.76 35.9482 20.475 35.9482 20.095C35.9482 19.145 35.9482 17.34 35.7605 15.25C35.7605 14.965 35.6667 14.68 35.6667 14.395C35.3851 11.545 34.7281 8.31499 33.5079 5.84499C33.414 5.65499 33.3202 5.46499 33.2263 5.27499C33.0386 4.89499 32.757 4.41999 32.4754 4.03999C32.3816 3.94499 32.3816 3.94499 32.2877 3.84999C31.8184 3.27999 31.2553 2.80499 30.6921 2.51999C30.2228 2.32999 29.7535 2.13999 29.2842 2.13999C28.7211 2.13999 28.1579 2.23499 27.5009 2.42499C27.407 2.42499 27.407 2.42499 27.3132 2.51999C27.3132 2.51999 27.3132 2.51999 27.2193 2.51999C27.2193 2.51999 27.2193 2.51999 27.1254 2.51999C27.0316 2.51999 26.9377 2.61499 26.8439 2.61499H26.75C25.5298 3.18499 24.2158 4.22999 22.9018 5.55999C23.0895 5.74999 23.2772 5.93999 23.4649 6.12999C23.7465 6.41499 23.9342 6.79499 24.1219 7.07999C24.1219 7.17499 24.2158 7.17499 24.2158 7.17499C24.2158 7.17499 23.9342 6.88999 23.2772 6.69999C22.4325 6.31999 20.9307 5.84499 18.7719 5.84499C16.6132 5.84499 15.1114 6.31999 14.2667 6.69999C13.7035 6.98499 13.3281 7.17499 13.3281 7.17499C13.4219 6.98499 13.5158 6.88999 13.6096 6.69999V6.60499C13.8912 6.22499 14.2667 5.84499 14.6421 5.55999C13.3281 4.22999 12.014 3.18499 10.7939 2.61499C10.7 2.51999 10.6061 2.51999 10.5123 2.51999C10.5123 2.51999 10.4184 2.51999 10.4184 2.42499C10.4184 2.42499 10.4184 2.42499 10.3246 2.42499H10.2307C10.1368 2.42499 10.1368 2.42499 10.043 2.32999C9.38596 2.13999 8.82281 2.04499 8.25965 2.04499C7.79035 2.04499 7.22719 2.23499 6.85175 2.42499C6.38246 2.80499 5.8193 3.27999 5.35 3.84999C5.35 3.94499 5.25614 4.03999 5.16228 4.13499C4.97456 4.41999 4.69298 4.79999 4.50526 5.27499C4.31754 5.46499 4.22368 5.65499 4.12982 5.93999C3.37895 7.55499 2.81579 9.35999 2.44035 11.26C2.25263 12.4 2.06491 13.445 1.97105 14.49C1.87719 14.775 1.87719 15.06 1.87719 15.345C1.68947 17.435 1.68947 19.24 1.68947 20.19C1.68947 20.57 1.68947 20.855 1.68947 20.855V20.95C1.68947 20.95 1.68947 20.95 1.68947 21.045C1.68947 21.045 1.22018 22.66 1.22018 24.845C1.22018 25.13 1.22018 25.32 1.22018 25.605C1.22018 25.795 1.22018 25.985 1.22018 26.175C1.22018 26.27 1.22018 26.365 1.22018 26.46C1.31404 27.22 1.40789 27.885 1.59561 28.55C1.78333 29.025 1.87719 29.5 2.06491 29.88C2.15877 30.07 2.25263 30.26 2.34649 30.545C2.34649 30.545 2.34649 30.64 2.44035 30.64C2.62807 31.02 2.90965 31.4 3.19123 31.78C4.59912 33.49 6.38246 34.82 8.44737 35.865C9.19825 36.245 9.94912 36.53 10.7939 36.815H7.97807C5.8193 35.77 3.94211 34.25 2.44035 32.54C0.844737 30.45 0 27.885 0 24.75C0 22.755 0.375439 21.14 0.563158 20.76C0.563158 20.285 0.469298 17.53 0.844737 14.3C1.40789 9.45499 2.53421 5.74999 4.31754 3.46999C5.44386 1.94999 6.75789 1.09499 8.35351 1.09499C9.7614 0.999987 11.357 1.56999 13.0465 2.80499C14.2667 3.75499 15.2991 4.79999 15.7684 5.27499C16.6132 5.08499 17.5518 4.89499 18.8658 4.89499C20.086 4.89499 21.1184 5.08499 21.9632 5.27499C22.4325 4.79999 23.4649 3.75499 24.6851 2.80499C26.3746 1.56999 27.9702 0.999987 29.3781 1.09499C30.8798 1.18999 32.2877 2.04499 33.3202 3.46999C35.1035 5.84499 36.2298 9.45499 36.793 14.3C37.1684 17.625 37.0746 20.285 37.0746 20.76C37.1684 21.14 37.5439 22.755 37.6377 24.75C37.5439 27.885 36.6991 30.45 35.1035 32.35Z" fill="black"/>
<path d="M11.7327 24.465C13.2344 24.465 14.4546 22.945 14.4546 20.95C14.4546 19.05 13.2344 17.435 11.7327 17.435C10.2309 17.435 9.01074 18.955 9.01074 20.95C9.01074 22.945 10.2309 24.465 11.7327 24.465Z" fill="black"/>
<path d="M26.0932 24.465C27.595 24.465 28.8151 22.945 28.8151 20.95C28.8151 19.05 27.595 17.435 26.0932 17.435C24.5915 17.435 23.3713 18.955 23.3713 20.95C23.2774 22.945 24.4976 24.465 26.0932 24.465Z" fill="black"/>
<path d="M12.3895 20.855C12.8588 20.855 13.2343 20.38 13.2343 19.715C13.2343 19.05 12.8588 18.575 12.3895 18.575C11.9202 18.575 11.5448 19.05 11.5448 19.715C11.4509 20.285 11.9202 20.855 12.3895 20.855Z" fill="#18171F"/>
<path d="M25.5297 20.855C25.999 20.855 26.3744 20.38 26.3744 19.715C26.3744 19.05 25.999 18.575 25.5297 18.575C25.0604 18.575 24.6849 19.05 24.6849 19.715C24.5911 20.285 25.0604 20.855 25.5297 20.855Z" fill="#18171F"/>
<path d="M29.5656 36.72L28.627 37.195H25.248L26.7498 36.72" fill="black"/>
<path d="M8.91662 37.1L7.97803 36.625H10.7938L12.2956 37.1" fill="black"/>
<path d="M21.9632 23.895C21.3061 22.565 20.4614 21.995 19.8983 21.615C19.2412 21.33 18.7719 21.33 18.7719 21.33C18.7719 21.33 16.8947 21.33 15.5807 23.895C14.1728 26.555 11.2632 28.645 7.6965 27.505C5.91317 26.935 4.78685 26.175 3.75439 25.89C4.41141 29.595 6.57018 32.16 9.38597 33.87C12.2018 35.58 15.6746 36.34 18.7719 36.34C24.9667 36.34 32.5693 33.11 33.7895 25.795C32.757 26.175 31.6307 26.84 29.8474 27.41C26.2807 28.645 23.3711 26.555 21.9632 23.895ZM22.9956 32.35C22.8079 32.825 22.5263 33.205 22.2447 33.585C21.6816 34.345 20.5553 35.295 18.6781 35.295C16.8009 35.295 15.6746 34.345 15.1114 33.585C14.8298 33.205 14.6421 32.825 14.4544 32.35H14.3605C11.6386 32.35 11.8263 30.07 11.8263 30.07C11.8263 30.07 12.7649 31.115 14.8298 30.83C16.8947 30.545 17.4579 29.88 17.4579 29.595C17.5518 29.31 17.4579 28.74 17.4579 28.74C17.4579 28.74 15.393 28.17 15.2991 25.985C15.2991 25.89 15.2991 25.89 15.2991 25.795C15.2991 24.465 16.8009 23.42 18.5842 23.42C20.3675 23.42 21.8693 24.465 21.8693 25.795C21.8693 25.89 21.8693 25.89 21.8693 25.985C21.6816 28.17 19.7105 28.74 19.7105 28.74C19.7105 28.74 19.6167 29.31 19.7105 29.595C19.8044 29.88 20.3675 30.545 22.3386 30.83C24.3097 31.115 25.3421 30.07 25.3421 30.07C25.3421 30.07 25.7175 32.35 22.9956 32.35Z" fill="white"/>
<path d="M19.9921 32.73C19.8983 32.73 19.7106 32.635 19.6167 32.73C19.7106 32.635 19.8983 32.635 19.9921 32.73Z" fill="black"/>
<path d="M17.1763 32.92C17.364 32.73 17.6456 32.635 17.9271 32.635C17.6456 32.635 17.364 32.73 17.1763 32.92Z" fill="black"/>
<path d="M35.5726 14.49C35.291 11.64 34.634 8.40999 33.4138 5.93999C33.3199 5.74999 33.2261 5.55999 33.1322 5.36999C32.9445 4.98999 32.6629 4.51499 32.3813 4.13499C32.2875 4.03999 32.2875 4.03999 32.1936 3.94499C31.7243 3.46999 31.1612 3.08999 30.4103 2.89999C29.0024 2.61499 26.8436 3.08999 23.8401 6.69999C23.934 6.79499 24.0278 6.98499 24.0278 7.07999C24.0278 7.17499 24.1217 7.17499 24.1217 7.17499C24.2156 7.26999 24.2155 7.26999 24.3094 7.36499C24.4033 7.45999 24.4971 7.64999 24.591 7.74499C24.591 7.74499 23.8401 7.17499 21.9629 6.88999C21.3998 6.79499 20.8366 6.69999 20.1796 6.69999C19.898 6.69999 19.3348 6.69999 18.7717 6.69999C18.6778 6.69999 18.584 6.69999 18.4901 6.69999H18.3963C18.3024 6.69999 18.2085 6.69999 18.1147 6.69999H18.0208C17.927 6.69999 17.8331 6.69999 17.7392 6.69999H17.6454C17.5515 6.69999 17.4577 6.69999 17.3638 6.69999H17.2699H16.9884H16.8945C16.8006 6.69999 16.7068 6.69999 16.6129 6.69999H16.5191C16.4252 6.69999 16.3313 6.69999 16.3313 6.69999H16.2375C16.1436 6.69999 16.0498 6.69999 16.0498 6.69999H15.9559C15.862 6.69999 15.7682 6.69999 15.7682 6.69999H15.6743C15.5805 6.69999 15.5805 6.69999 15.4866 6.69999H15.3927C15.2989 6.69999 15.2989 6.69999 15.205 6.69999H15.1112C15.0173 6.69999 15.0173 6.69999 14.9234 6.69999H14.8296C14.7357 6.69999 14.7357 6.69999 14.6419 6.69999H14.548H14.3603H14.2664H14.1726H14.0787H13.9848H13.891H13.7971H13.7033H13.6094H13.5155H13.4217H13.3278H13.234H13.1401H13.0463C12.577 6.88999 12.3892 6.98499 12.3892 6.98499C12.4831 6.79499 12.577 6.69999 12.6708 6.60499C12.7647 6.50999 12.7647 6.41499 12.8585 6.41499C12.9524 6.22499 13.0463 6.12999 13.1401 5.93999C13.1401 5.93999 13.1401 5.93999 13.1401 5.84499C13.0463 5.74999 13.0463 5.74999 12.9524 5.65499L12.8585 5.55999L12.7647 5.46499L12.6708 5.36999L12.577 5.27499L12.4831 5.17999L12.3892 5.08499L12.2954 4.98999L12.2015 4.89499L12.1077 4.79999L12.0138 4.70499L11.9199 4.60999L12.2015 5.08499L12.1077 4.98999L12.0138 4.89499L11.9199 4.79999L11.8261 4.70499L11.7322 4.60999L11.6384 4.51499L11.5445 4.41999C11.5445 4.41999 11.4506 4.41999 11.4506 4.32499L11.3568 4.22999C11.3568 4.22999 11.2629 4.22999 11.2629 4.13499L11.1691 4.03999L11.0752 3.94499L10.9813 3.84999L10.8875 3.75499L10.7936 3.65999C10.7936 3.65999 10.6998 3.65999 10.6998 3.56499C10.6998 3.56499 10.6059 3.56499 10.6059 3.46999L10.3243 3.65999C10.3243 3.65999 10.2305 3.65999 10.2305 3.56499C10.2305 3.56499 10.1366 3.56499 10.1366 3.46999C10.1366 3.46999 10.0427 3.46999 10.0427 3.37499H9.94888C9.94888 3.37499 9.85502 3.37499 9.85502 3.27999H9.76116H9.6673H9.57344H9.47959H9.38573H9.29187H9.19801H9.10415H9.01029H8.91643H8.82257H8.72871H8.63485L8.72871 2.89999H8.63485H8.54099H8.44713H8.35327H8.25941H8.16555H8.07169H7.97783H7.88397H7.79011C7.79011 2.89999 7.79011 2.89999 7.69625 2.89999C7.69625 2.89999 7.69625 2.89999 7.60239 2.89999H7.69625H7.60239L7.50853 2.80499H7.41467H7.32081H7.22695V2.89999C7.22695 2.89999 7.22695 2.89999 7.13309 2.89999V2.89999H7.03923C7.03923 2.89999 7.03923 2.89999 6.94537 2.89999H6.85151H6.75765H6.6638H6.56994V2.99499H6.47608H6.38222H6.28836H6.1945H6.10064H6.00678H5.91292C5.7252 3.46999 5.53748 3.65999 5.34976 3.84999C5.2559 3.94499 5.2559 4.03999 5.16204 4.13499C4.97432 4.41999 4.69274 4.79999 4.50502 5.27499C4.3173 5.46499 4.22344 5.65499 4.12958 5.93999C3.37871 7.55499 2.81555 9.35999 2.44011 11.26C2.25239 12.4 2.06467 13.445 1.97081 14.49C1.87695 14.775 1.87695 15.06 1.87695 15.345C1.87695 15.44 1.97081 15.44 2.06467 15.535C2.15853 15.63 2.25239 15.63 2.34625 15.63C2.44011 15.63 2.53397 15.63 2.62783 15.63C3.47257 15.44 3.56643 14.3 3.56643 14.3C3.37871 10.12 5.16204 6.98499 6.1945 5.55999C6.28836 5.46499 6.28836 5.36999 6.38222 5.36999C6.47608 5.17999 6.75765 5.08499 6.94537 4.98999C7.13309 4.89499 7.41467 4.98999 7.60239 4.98999C7.97783 5.17999 8.35327 5.46499 8.63485 5.74999C8.82257 5.93999 8.91643 6.03499 9.01029 6.22499C9.6673 6.98499 9.94888 7.93499 10.0427 8.50499C10.0427 8.59999 10.0427 8.78999 10.0427 8.88499C9.94888 8.97999 9.85502 9.07499 9.76116 9.16999C9.29187 9.45499 8.82257 9.73999 8.44713 10.12C8.35327 10.215 3.00327 16.96 3.66029 24.845C3.66029 24.94 3.66029 25.13 3.66029 25.225C3.75415 25.51 3.75415 25.7 3.75415 25.89C4.7866 26.27 5.91292 26.935 7.69625 27.505C11.2629 28.645 14.1726 26.555 15.5805 23.895C16.8945 21.33 18.7717 21.33 18.7717 21.33C18.7717 21.33 19.241 21.33 19.898 21.615C20.555 21.9 21.3059 22.565 21.9629 23.895C23.3708 26.555 26.2805 28.645 29.8471 27.505C31.6305 26.935 32.7568 26.175 33.7892 25.89C33.7892 25.7 33.8831 25.51 33.8831 25.32C33.8831 25.225 33.8831 25.035 33.8831 24.94C34.5401 16.96 29.1901 10.31 29.0963 10.215C28.627 9.83499 28.1577 9.54999 27.6884 9.35999C27.5945 9.26499 27.5006 9.16999 27.4068 9.07499C27.3129 8.97999 27.3129 8.78999 27.4068 8.69499C27.5945 8.12499 27.8761 7.17499 28.4392 6.41499C28.5331 6.22499 28.7208 6.12999 28.8147 5.93999C29.0963 5.65499 29.4717 5.36999 29.941 5.17999C30.1287 5.08499 30.4103 5.08499 30.598 5.17999C30.7857 5.27499 30.9734 5.36999 31.1612 5.55999C31.255 5.65499 31.255 5.65499 31.3489 5.74999C32.2875 7.17499 34.1647 10.31 34.0708 14.49C34.0708 14.49 34.1647 15.63 35.0094 15.82C35.1033 15.82 35.1971 15.82 35.291 15.82C35.3848 15.82 35.4787 15.725 35.5726 15.725C35.6664 15.725 35.6664 15.63 35.7603 15.535C35.6664 15.06 35.6664 14.775 35.5726 14.49Z" fill="#113CFC"/>
<path d="M12.3897 15.915C12.5775 16.2 12.7652 16.485 13.0468 16.675C13.7038 17.245 14.5485 17.435 15.2055 17.055C16.0503 16.58 16.1441 15.25 15.4871 14.11V14.015C14.8301 12.875 13.6099 12.4 12.7652 12.875H12.6713C11.7327 13.445 11.6389 14.775 12.3897 15.915Z" fill="white"/>
<path d="M5.63189 11.64C6.94593 9.36 9.19856 6.225 6.19505 5.56C5.25645 6.985 3.37926 10.12 3.47312 14.3C3.47312 14.3 4.31786 13.92 5.63189 11.64Z" fill="white"/>
<path d="M8.63525 5.75C8.82297 5.94 8.91683 6.035 9.01069 6.225C8.91683 6.035 8.82297 5.94 8.63525 5.75Z" fill="white"/>
<path d="M8.44722 10.12C8.91652 9.74001 9.38581 9.45501 9.85511 9.26501C9.94897 9.17001 10.0428 9.07501 10.1367 8.98001C10.2306 8.88501 10.2306 8.69501 10.1367 8.60001C9.94897 8.03001 9.66739 7.08001 9.10424 6.32001C8.91652 6.13001 8.82266 5.94001 8.63494 5.75001C8.35336 5.46501 7.97792 5.18001 7.50862 4.99001C7.3209 4.89501 7.03932 4.89501 6.8516 4.99001C6.66388 4.99001 6.47616 5.18001 6.28845 5.37001C6.28845 5.37001 6.19459 5.46501 6.19459 5.56001C9.1981 6.22501 6.94546 9.45501 5.63143 11.64C4.31739 13.92 3.47266 14.3 3.47266 14.3C3.47266 14.87 3.56652 15.535 3.66038 16.105C3.66038 16.2 3.66038 16.2 3.75424 16.2L3.84809 16.295C3.94195 16.295 3.94195 16.295 4.03581 16.295L4.12967 16.2C4.69283 14.775 6.10073 11.925 8.44722 10.12Z" fill="#DBBDBF"/>
<path d="M3.28524 25.7C3.47296 25.7 3.66068 25.795 3.75453 25.795C3.75453 25.7 3.75454 25.51 3.66068 25.225C3.66068 25.13 3.66068 24.94 3.66068 24.845C2.9098 16.865 8.35366 10.215 8.44752 10.12C6.10103 11.925 4.69313 14.775 4.12997 16.2L4.03611 16.295C4.03611 16.295 3.94225 16.295 3.84839 16.295C3.75453 16.295 3.75453 16.295 3.75453 16.2L3.66068 16.105C3.56682 15.535 3.47296 14.87 3.47296 14.3C3.47296 14.3 3.3791 15.44 2.53436 15.63C2.4405 15.63 2.34664 15.63 2.25278 15.63C2.15892 15.63 2.06506 15.535 1.9712 15.535C1.87734 15.535 1.87734 15.44 1.78348 15.345C1.59576 17.435 1.59576 19.24 1.59576 20.19C1.59576 20.57 1.59576 20.855 1.59576 20.855V20.95C1.59576 20.95 1.59576 20.95 1.59576 21.045C1.59576 21.045 1.12646 22.66 1.12646 24.845C1.12646 25.13 1.12646 25.32 1.12646 25.605C1.12646 25.795 1.12646 25.985 1.12646 26.175C1.9712 25.7 2.62822 25.605 3.28524 25.7Z" fill="#193498"/>
<path d="M15.2054 31.21C16.9887 30.925 17.9273 30.26 18.3028 29.88V28.55C17.7396 28.455 17.2703 28.265 16.801 27.98L16.7071 27.885C16.6133 27.79 16.6133 27.79 16.5194 27.695C15.9563 27.22 15.5808 26.555 15.487 25.985C15.6747 28.17 17.6457 28.74 17.6457 28.74C17.6457 28.74 17.7396 29.31 17.6457 29.595C17.5519 29.88 16.9887 30.545 15.0177 30.83C12.9528 31.115 12.0142 30.07 12.0142 30.07C12.0142 30.07 12.8589 31.59 15.2054 31.21Z" fill="#DBBDBF"/>
<path d="M13.1405 7.46001C13.0466 7.55501 12.9527 7.74501 12.8589 7.84001C13.0466 7.74501 13.2343 7.65001 13.5159 7.55501H13.6098H13.7036H13.7975H13.8913H13.9852H14.0791H14.1729C14.1729 7.55501 14.1729 7.55501 14.2668 7.55501H14.3606H14.4545H14.5484H14.6422H14.7361H14.8299H15.0177H15.1115C15.2054 7.55501 15.2054 7.55501 15.2992 7.55501H15.3931C15.487 7.55501 15.487 7.55501 15.5808 7.55501H15.6747C15.7685 7.55501 15.7685 7.55501 15.8624 7.55501H15.9563C16.0501 7.55501 16.0501 7.55501 16.144 7.55501H16.2378C16.3317 7.55501 16.3317 7.55501 16.4256 7.55501H16.5194C16.6133 7.55501 16.7071 7.55501 16.7071 7.55501H16.801C16.8949 7.55501 16.9887 7.55501 16.9887 7.55501H17.0826C17.1764 7.55501 17.2703 7.55501 17.3642 7.55501H17.458H17.7396H17.8334C17.9273 7.55501 18.0212 7.55501 18.115 7.55501H18.2089C18.3027 7.55501 18.3966 7.55501 18.4905 7.55501H18.5843C18.6782 7.55501 18.772 7.55501 18.8659 7.55501H18.9598C19.0536 7.55501 19.1475 7.55501 19.2413 7.55501C19.8045 7.55501 20.2738 7.55501 20.837 7.65001C21.4001 7.65001 21.9633 7.74501 22.6203 7.84001C24.4036 8.22001 25.2484 8.69501 25.2484 8.69501C25.1545 8.50501 25.0606 8.41001 24.9668 8.31501C24.8729 8.22001 24.8729 8.12501 24.7791 8.12501C24.7791 8.12501 24.4975 7.84001 23.8405 7.65001C22.9957 7.27001 21.494 6.79501 19.3352 6.79501C17.1764 6.79501 15.6747 7.27001 14.8299 7.65001C14.2668 7.93501 13.8913 8.12501 13.8913 8.12501C13.3282 7.27001 13.2343 7.36501 13.1405 7.46001Z" fill="#1597E5"/>
<path d="M5.3501 3.85001C5.53782 3.66001 5.72554 3.47001 6.00712 3.28001H6.10098H6.19483H6.28869H6.38255H6.47641H6.57027H6.66413H6.75799H6.85185H6.94571H7.03957H7.13343H7.22729C7.22729 3.28001 7.22729 3.28001 7.32115 3.28001H7.41501H7.50887H7.60273C7.60273 3.28001 7.60273 3.28001 7.69659 3.28001H7.79045H7.88431H7.97817H8.07203H8.16589H8.25975H8.35361H8.44747H8.54133H8.63519C8.63519 3.28001 8.63519 3.28001 8.72905 3.28001H8.8229H8.91676H9.01062H9.10448H9.19834H9.2922L8.44747 2.90001H8.54133H8.63519H8.72905H8.8229H8.91676H9.01062H9.10448H9.19834H9.2922H9.38606H9.47992H9.57378H9.66764H9.7615H9.85536H9.94922H10.0431C10.0431 2.90001 10.1369 2.90001 10.1369 2.99501H10.2308C10.2308 2.99501 10.3247 2.99501 10.3247 3.09001C10.3247 3.09001 10.4185 3.09001 10.4185 3.18501C10.4185 3.18501 10.5124 3.18501 10.5124 3.28001L10.6062 3.37501C10.6062 3.37501 10.7001 3.37501 10.7001 3.47001C10.7001 3.47001 10.794 3.47001 10.794 3.56501L10.8878 3.66001L10.9817 3.75501L11.0755 3.85001L11.1694 3.94501L11.2633 4.04001C11.2633 4.04001 11.3571 4.04001 11.3571 4.13501L11.451 4.23001C11.451 4.23001 11.5448 4.23001 11.5448 4.32501L11.6387 4.42001C11.6387 4.42001 11.7326 4.42001 11.7326 4.51501L11.8264 4.61001L11.9203 4.70501L12.0141 4.80001L12.108 4.89501L12.2019 4.99001L12.2957 5.08501L12.3896 5.18001L12.4834 5.27501L12.5773 5.37001L12.6712 5.46501L12.765 5.56001L12.8589 5.65501L12.9527 5.75001L13.0466 5.84501L13.1404 5.94001L13.2343 6.03501L13.3282 6.13001C13.422 6.22501 13.422 6.22501 13.5159 6.32001C13.7975 5.94001 14.1729 5.56001 14.5483 5.27501C13.2343 3.94501 11.9203 2.90001 10.7001 2.33001C10.6062 2.23501 10.5124 2.23501 10.4185 2.23501C10.4185 2.23501 10.3247 2.23501 10.3247 2.14001C10.3247 2.14001 10.3247 2.14001 10.2308 2.14001H10.1369C10.0431 2.14001 10.0431 2.14001 9.94922 2.04501C9.2922 1.85501 8.72905 1.76001 8.16589 1.76001C7.69659 1.76001 7.13343 1.95001 6.75799 2.14001C6.38255 2.80501 5.8194 3.28001 5.3501 3.85001Z" fill="#1597E5"/>
<path d="M22.3383 16.96C22.9953 17.34 23.8401 17.15 24.4971 16.58C24.6848 16.39 24.9664 16.2 25.0602 15.915C25.0602 15.915 25.0602 15.915 25.0602 15.82C25.7173 14.68 25.6234 13.35 24.7787 12.78C24.7787 12.78 24.7787 12.78 24.6848 12.78C23.8401 12.305 22.6199 12.78 21.9629 13.92C21.9629 13.92 21.9629 13.92 21.9629 14.015C21.3997 15.155 21.4936 16.485 22.3383 16.96Z" fill="white"/>
<path d="M31.9124 11.64C33.2264 13.825 33.9773 14.205 34.0711 14.3C34.165 10.12 32.3817 6.985 31.3492 5.56C28.3457 6.225 30.5983 9.455 31.9124 11.64Z" fill="white"/>
<path d="M28.5332 6.225C28.6271 6.035 28.8148 5.94 28.9086 5.75C28.7209 5.94 28.6271 6.035 28.5332 6.225Z" fill="white"/>
<path d="M20.4616 33.11C20.4616 33.015 20.3677 32.92 20.18 32.825C20.18 32.825 20.18 32.825 20.0861 32.825C20.0861 32.825 20.0861 32.825 19.9923 32.825C19.8984 32.825 19.7107 32.73 19.6168 32.825C19.6168 32.825 19.6168 32.825 19.523 32.825H19.4291C19.4291 32.825 19.4291 32.825 19.3353 32.825C19.2414 32.825 19.1475 32.92 19.0537 33.015C18.9598 33.11 18.866 33.205 18.866 33.3C18.6782 32.92 18.3967 32.73 18.0212 32.73C17.7396 32.73 17.4581 32.825 17.2703 33.015C17.1765 33.11 17.1765 33.11 17.1765 33.205C17.1765 33.3 17.0826 33.395 17.1765 33.585C17.1765 33.68 17.2703 33.775 17.3642 33.87C17.4581 33.965 17.5519 34.06 17.6458 34.06C18.1151 34.25 18.4905 34.345 18.9598 34.25C19.4291 34.25 19.8984 34.155 20.2739 34.06C20.18 33.965 20.6493 33.68 20.4616 33.11Z" fill="#FF9C9C"/>
<path d="M33.508 16.105L33.6018 16.2C33.6018 16.2 33.6957 16.2 33.7896 16.2C33.8834 16.2 33.8834 16.2 33.8834 16.105L33.9773 16.01C34.0711 15.44 34.165 14.775 34.165 14.205C34.165 14.205 33.3203 13.825 32.0062 11.545C30.6922 9.265 28.4396 6.13 31.4431 5.46501C31.3492 5.37001 31.3492 5.27501 31.2554 5.27501C31.1615 5.08501 30.8799 4.99001 30.6922 4.89501C30.5045 4.80001 30.2229 4.89501 30.0352 4.89501C29.6597 5.08501 29.2843 5.37001 28.9089 5.65501C28.7212 5.84501 28.6273 5.94001 28.5334 6.13001C27.8764 6.89001 27.5948 7.84 27.501 8.41C27.501 8.505 27.501 8.695 27.501 8.79C27.501 8.885 27.6887 8.98 27.7826 9.075C28.2519 9.36 28.7212 9.645 29.1905 9.93C31.4431 11.925 32.851 14.775 33.508 16.105Z" fill="#DBBDBF"/>
<path d="M35.6665 15.345C35.6665 15.44 35.5726 15.44 35.4788 15.535C35.3849 15.63 35.291 15.63 35.1972 15.63C35.1033 15.63 35.0095 15.63 34.9156 15.63C34.1647 15.44 33.977 14.3 33.977 14.3C33.977 14.87 33.8831 15.535 33.7893 16.105C33.7893 16.2 33.7893 16.2 33.6954 16.2L33.6016 16.295C33.5077 16.295 33.5077 16.295 33.4138 16.295L33.32 16.2C32.7568 14.87 31.3489 11.925 29.0024 10.12C29.0963 10.215 34.4463 16.96 33.7893 24.845C33.7893 24.94 33.7893 25.13 33.7893 25.225C33.7893 25.415 33.6954 25.605 33.6954 25.795C33.8831 25.7 34.0709 25.7 34.1647 25.7C34.8217 25.605 35.4788 25.7 36.2296 26.175C36.2296 25.985 36.2296 25.795 36.2296 25.605C36.2296 25.32 36.2296 25.13 36.2296 24.845C36.2296 22.66 35.7603 21.045 35.7603 21.045C35.7603 21.045 35.7603 21.045 35.7603 20.95V20.855C35.7603 20.855 35.7603 20.57 35.7603 20.19C35.9481 19.24 35.8542 17.435 35.6665 15.345Z" fill="#193498"/>
<path d="M21.0245 27.695C20.9307 27.79 20.9307 27.79 20.8368 27.885L20.743 27.98C20.2737 28.265 19.8044 28.455 19.2412 28.55V29.88C19.7105 30.26 20.5552 30.925 22.3386 31.21C24.6851 31.495 25.5298 30.07 25.5298 30.07C25.5298 30.07 24.5912 31.115 22.5263 30.83C20.4614 30.545 19.8982 29.88 19.8982 29.595C19.8044 29.31 19.8982 28.74 19.8982 28.74C19.8982 28.74 21.9631 28.17 22.057 25.985C21.9631 26.555 21.5877 27.22 21.0245 27.695Z" fill="#DBBDBF"/>
<path d="M30.5041 2.89999C31.1611 2.99499 31.8181 3.37499 32.1936 3.94499C31.7243 3.37499 31.1611 2.89999 30.598 2.61499C30.1287 2.42499 29.6594 2.23499 29.1901 2.23499C28.6269 2.23499 28.0638 2.32999 27.4067 2.51999C27.3129 2.51999 27.3129 2.51999 27.219 2.61499C27.219 2.61499 27.219 2.61499 27.1252 2.61499C27.1252 2.61499 27.1252 2.61499 27.0313 2.61499C26.9374 2.61499 26.8436 2.70999 26.7497 2.70999H26.6559C25.4357 3.27999 24.1217 4.32499 22.8076 5.65499C23.1831 5.93998 23.5585 6.22498 23.8401 6.69998C26.9374 3.08999 29.0962 2.61499 30.5041 2.89999Z" fill="#1597E5"/>
<path d="M18.7719 32.445C17.2701 31.875 16.5193 32.92 16.3315 33.205C16.6131 33.49 16.9886 33.775 17.4579 33.965C17.364 33.87 17.2701 33.87 17.1763 33.775C17.0824 33.68 17.0824 33.585 16.9886 33.49C16.9886 33.395 16.9886 33.205 16.9886 33.11C16.9886 33.015 17.0824 33.015 17.0824 32.92C17.2701 32.73 17.5517 32.635 17.8333 32.635C18.2087 32.635 18.5842 32.825 18.678 33.205C18.678 33.11 18.7719 33.015 18.8658 32.92C18.9596 32.825 19.0535 32.73 19.1473 32.73C19.1473 32.73 19.1473 32.73 19.2412 32.73C19.2412 32.73 19.2412 32.73 19.3351 32.73C19.4289 32.73 19.6166 32.73 19.7105 32.73C19.7105 32.73 19.7105 32.73 19.8044 32.73C19.8044 32.73 19.8044 32.73 19.8982 32.73C19.9921 32.825 20.0859 32.92 20.1798 33.015C20.3675 33.585 19.8982 33.87 19.8044 33.87C20.1798 33.68 20.5552 33.49 20.9307 33.11C21.0245 32.92 20.2736 31.97 18.7719 32.445Z" fill="#E06E6E"/>
<path d="M8.4473 35.77C9.3859 36.245 10.4184 36.625 11.4508 36.91C12.7648 37.29 14.0789 37.575 15.3929 37.67C15.9561 37.765 16.5192 37.765 17.0824 37.86C17.5517 37.86 18.021 37.86 18.4903 37.955C18.5841 37.955 18.678 37.955 18.7719 37.955C18.9596 37.955 19.1473 37.955 19.335 37.955C19.4289 37.955 19.4289 37.955 19.5227 37.955C20.0859 37.955 20.6491 37.955 21.1184 37.86C21.2122 37.86 21.2122 37.86 21.3061 37.86H21.4938H21.5877C21.6815 37.86 21.6815 37.86 21.7754 37.86C24.9666 37.48 27.7824 36.625 30.1289 35.295C30.1289 35.295 30.2227 35.295 30.2227 35.2L30.3166 35.105C31.1613 34.63 31.9122 34.06 32.6631 33.395C33.2262 32.92 33.6955 32.445 34.1648 31.875C34.2587 31.78 34.2587 31.78 34.3526 31.685C34.6341 31.305 34.9157 30.925 35.1973 30.545C35.5727 29.975 35.7605 29.31 35.9482 28.645C36.1359 27.98 36.3236 27.22 36.4175 26.555C36.4175 26.46 36.4175 26.365 36.4175 26.27C35.5727 25.795 35.0096 25.7 34.3526 25.795C34.1648 25.795 33.9771 25.89 33.8833 25.89C32.6631 33.205 25.0605 36.435 18.8657 36.435C15.7684 36.435 12.2955 35.675 9.47976 33.965C6.66397 32.255 4.41133 29.595 3.84818 25.985C3.66046 25.89 3.47274 25.89 3.37888 25.89C2.72186 25.795 2.06484 25.89 1.31396 26.365C1.31396 26.46 1.31396 26.555 1.31396 26.65C1.40782 27.41 1.50168 28.075 1.78326 28.74C1.78326 29.025 1.87712 29.5 2.06484 29.88C2.1587 30.07 2.25256 30.26 2.34642 30.545C2.34642 30.545 2.34642 30.64 2.44028 30.64C2.628 31.02 2.90958 31.4 3.19116 31.78C4.59905 33.395 6.38239 34.725 8.4473 35.77Z" fill="#DBBDBF"/>
<path d="M25.5298 30.07C25.5298 30.07 24.685 31.59 22.3385 31.21C20.5552 30.925 19.6166 30.26 19.2412 29.88V28.55C19.8043 28.455 20.2736 28.265 20.7429 27.98L20.8368 27.885C20.9307 27.79 20.9307 27.79 21.0245 27.695C21.5877 27.22 21.9631 26.555 22.057 25.985C22.057 25.89 22.057 25.89 22.057 25.795C22.057 24.465 20.5552 23.42 18.7719 23.42C16.9885 23.42 15.4868 24.465 15.4868 25.795C15.4868 25.89 15.4868 25.89 15.4868 25.985C15.5807 26.555 15.9561 27.22 16.5192 27.695C16.6131 27.79 16.6131 27.79 16.707 27.885L16.8008 27.98C17.2701 28.265 17.7394 28.455 18.3026 28.55V29.88C17.8333 30.26 16.9885 30.925 15.2052 31.21C12.8587 31.495 12.014 30.07 12.014 30.07C12.014 30.07 11.8263 32.35 14.5482 32.35H14.6421C14.8298 32.825 15.0175 33.205 15.2991 33.585C15.8622 34.345 16.9885 35.295 18.8657 35.295C20.7429 35.295 21.8692 34.345 22.4324 33.585C22.714 33.205 22.9017 32.825 23.0894 32.35H23.1833C25.7175 32.35 25.5298 30.07 25.5298 30.07ZM20.0859 33.965C19.6166 34.155 19.2412 34.25 18.7719 34.155C18.3026 34.155 17.8333 34.06 17.4578 33.965C17.364 33.87 17.2701 33.87 17.1763 33.775C17.2701 33.87 17.364 33.965 17.4578 33.965C17.0824 33.775 16.707 33.585 16.3315 33.205C16.5192 32.92 17.2701 31.97 18.7719 32.445C20.2736 31.875 21.0245 32.92 21.2122 33.205C20.9307 33.49 20.5552 33.775 20.0859 33.965Z" fill="black"/>
<path d="M25.2481 37.1H28.627C28.627 37.1 28.1577 37.29 27.97 37.385C27.7823 37.48 27.5946 37.48 27.4069 37.575C27.2191 37.67 27.0314 37.67 26.8437 37.765H26.7498C26.5621 37.86 26.4683 37.86 26.2805 37.86L26.0928 38.05C25.999 38.05 25.8112 38.145 25.7174 38.145C25.6235 38.145 25.6235 38.145 25.5297 38.145C25.3419 38.145 25.1542 38.24 24.9665 38.24C24.7788 38.24 24.5911 38.335 24.4033 38.335C24.3095 38.335 24.3095 38.335 24.2156 38.335C24.1218 38.335 23.934 38.43 23.8402 38.43H23.6525C23.4647 38.43 23.277 38.525 23.0893 38.525C22.4323 38.62 21.6814 38.715 20.9305 38.715C20.2735 38.905 19.5226 39 18.7718 39C17.3639 39 15.8621 38.905 14.4542 38.715C14.2665 38.715 14.0788 38.62 13.8911 38.62H13.7033C13.6095 38.62 13.4218 38.525 13.3279 38.525C13.234 38.525 13.234 38.525 13.1402 38.525C12.9525 38.525 12.7647 38.43 12.577 38.43C12.3893 38.43 12.2016 38.335 12.0139 38.335C11.92 38.335 11.92 38.335 11.8262 38.335C11.7323 38.335 11.5446 38.24 11.4507 38.24L11.263 37.955C11.0753 37.955 10.9814 37.86 10.7937 37.86H10.6998C10.3244 37.765 9.94896 37.575 9.57352 37.48C9.3858 37.29 9.10422 37.195 8.9165 37.1H12.2955C13.3279 37.385 14.3604 37.575 15.3928 37.67C15.956 37.765 16.5191 37.765 17.0823 37.86C17.5516 37.86 18.0209 37.86 18.4902 37.955C18.584 37.955 18.6779 37.955 18.7718 37.955C18.9595 37.955 19.1472 37.955 19.3349 37.955C19.4288 37.955 19.4288 37.955 19.5226 37.955C20.0858 37.955 20.649 37.955 21.1183 37.86C21.2121 37.86 21.2121 37.86 21.306 37.86H21.4937H21.5876C21.6814 37.86 21.6814 37.86 21.7753 37.86C22.9955 37.575 24.1218 37.385 25.2481 37.1Z" fill="black"/>
<path d="M35.1035 32.35C33.6018 34.155 31.8184 35.58 29.5658 36.625H26.75C27.9702 36.245 29.0965 35.77 30.1289 35.105C30.1289 35.105 30.2228 35.105 30.2228 35.01L30.3167 34.915C31.1614 34.44 31.9123 33.87 32.6632 33.205C33.2263 32.73 33.6956 32.255 34.1649 31.685C34.2588 31.59 34.2588 31.59 34.3526 31.495C34.6342 31.115 34.9158 30.735 35.1974 30.355C35.5728 29.785 35.7605 29.12 35.9482 28.455C36.136 27.79 36.3237 27.03 36.4175 26.365C36.4175 26.27 36.4175 26.175 36.4175 26.08C36.4175 25.89 36.4175 25.7 36.4175 25.51C36.4175 25.225 36.4175 25.035 36.4175 24.75C36.4175 22.565 35.9482 20.95 35.9482 20.95C35.9482 20.95 35.9482 20.95 35.9482 20.855V20.76C35.9482 20.76 35.9482 20.475 35.9482 20.095C35.9482 19.145 35.9482 17.34 35.7605 15.25C35.7605 14.965 35.6667 14.68 35.6667 14.395C35.3851 11.545 34.7281 8.31499 33.5079 5.84499C33.414 5.65499 33.3202 5.46499 33.2263 5.27499C33.0386 4.89499 32.757 4.41999 32.4754 4.03999C32.3816 3.94499 32.3816 3.94499 32.2877 3.84999C31.8184 3.27999 31.2553 2.80499 30.6921 2.51999C30.2228 2.32999 29.7535 2.13999 29.2842 2.13999C28.7211 2.13999 28.1579 2.23499 27.5009 2.42499C27.407 2.42499 27.407 2.42499 27.3132 2.51999C27.3132 2.51999 27.3132 2.51999 27.2193 2.51999C27.2193 2.51999 27.2193 2.51999 27.1254 2.51999C27.0316 2.51999 26.9377 2.61499 26.8439 2.61499H26.75C25.5298 3.18499 24.2158 4.22999 22.9018 5.55999C23.0895 5.74999 23.2772 5.93999 23.4649 6.12999C23.7465 6.41499 23.9342 6.79499 24.1219 7.07999C24.1219 7.17499 24.2158 7.17499 24.2158 7.17499C24.2158 7.17499 23.9342 6.88999 23.2772 6.69999C22.4325 6.31999 20.9307 5.84499 18.7719 5.84499C16.6132 5.84499 15.1114 6.31999 14.2667 6.69999C13.7035 6.98499 13.3281 7.17499 13.3281 7.17499C13.4219 6.98499 13.5158 6.88999 13.6096 6.69999V6.60499C13.8912 6.22499 14.2667 5.84499 14.6421 5.55999C13.3281 4.22999 12.014 3.18499 10.7939 2.61499C10.7 2.51999 10.6061 2.51999 10.5123 2.51999C10.5123 2.51999 10.4184 2.51999 10.4184 2.42499C10.4184 2.42499 10.4184 2.42499 10.3246 2.42499H10.2307C10.1368 2.42499 10.1368 2.42499 10.043 2.32999C9.38596 2.13999 8.82281 2.04499 8.25965 2.04499C7.79035 2.04499 7.22719 2.23499 6.85175 2.42499C6.38246 2.80499 5.8193 3.27999 5.35 3.84999C5.35 3.94499 5.25614 4.03999 5.16228 4.13499C4.97456 4.41999 4.69298 4.79999 4.50526 5.27499C4.31754 5.46499 4.22368 5.65499 4.12982 5.93999C3.37895 7.55499 2.81579 9.35999 2.44035 11.26C2.25263 12.4 2.06491 13.445 1.97105 14.49C1.87719 14.775 1.87719 15.06 1.87719 15.345C1.68947 17.435 1.68947 19.24 1.68947 20.19C1.68947 20.57 1.68947 20.855 1.68947 20.855V20.95C1.68947 20.95 1.68947 20.95 1.68947 21.045C1.68947 21.045 1.22018 22.66 1.22018 24.845C1.22018 25.13 1.22018 25.32 1.22018 25.605C1.22018 25.795 1.22018 25.985 1.22018 26.175C1.22018 26.27 1.22018 26.365 1.22018 26.46C1.31404 27.22 1.40789 27.885 1.59561 28.55C1.78333 29.025 1.87719 29.5 2.06491 29.88C2.15877 30.07 2.25263 30.26 2.34649 30.545C2.34649 30.545 2.34649 30.64 2.44035 30.64C2.62807 31.02 2.90965 31.4 3.19123 31.78C4.59912 33.49 6.38246 34.82 8.44737 35.865C9.19825 36.245 9.94912 36.53 10.7939 36.815H7.97807C5.8193 35.77 3.94211 34.25 2.44035 32.54C0.844737 30.45 0 27.885 0 24.75C0 22.755 0.375439 21.14 0.563158 20.76C0.563158 20.285 0.469298 17.53 0.844737 14.3C1.40789 9.45499 2.53421 5.74999 4.31754 3.46999C5.44386 1.94999 6.75789 1.09499 8.35351 1.09499C9.7614 0.999987 11.357 1.56999 13.0465 2.80499C14.2667 3.75499 15.2991 4.79999 15.7684 5.27499C16.6132 5.08499 17.5518 4.89499 18.8658 4.89499C20.086 4.89499 21.1184 5.08499 21.9632 5.27499C22.4325 4.79999 23.4649 3.75499 24.6851 2.80499C26.3746 1.56999 27.9702 0.999987 29.3781 1.09499C30.8798 1.18999 32.2877 2.04499 33.3202 3.46999C35.1035 5.84499 36.2298 9.45499 36.793 14.3C37.1684 17.625 37.0746 20.285 37.0746 20.76C37.1684 21.14 37.5439 22.755 37.6377 24.75C37.5439 27.885 36.6991 30.45 35.1035 32.35Z" fill="black"/>
<path d="M11.7327 24.465C13.2344 24.465 14.4546 22.945 14.4546 20.95C14.4546 19.05 13.2344 17.435 11.7327 17.435C10.2309 17.435 9.01074 18.955 9.01074 20.95C9.01074 22.945 10.2309 24.465 11.7327 24.465Z" fill="black"/>
<path d="M26.0932 24.465C27.595 24.465 28.8151 22.945 28.8151 20.95C28.8151 19.05 27.595 17.435 26.0932 17.435C24.5915 17.435 23.3713 18.955 23.3713 20.95C23.2774 22.945 24.4976 24.465 26.0932 24.465Z" fill="black"/>
<path d="M12.3895 20.855C12.8588 20.855 13.2343 20.38 13.2343 19.715C13.2343 19.05 12.8588 18.575 12.3895 18.575C11.9202 18.575 11.5448 19.05 11.5448 19.715C11.4509 20.285 11.9202 20.855 12.3895 20.855Z" fill="white"/>
<path d="M25.5297 20.855C25.999 20.855 26.3744 20.38 26.3744 19.715C26.3744 19.05 25.999 18.575 25.5297 18.575C25.0604 18.575 24.6849 19.05 24.6849 19.715C24.5911 20.285 25.0604 20.855 25.5297 20.855Z" fill="white"/>
<path d="M29.5656 36.72L28.627 37.195H25.248L26.7498 36.72" fill="black"/>
<path d="M8.91662 37.1L7.97803 36.625H10.7938L12.2956 37.1" fill="black"/>
</g>
<path d="M91.62 15.9679L98.9999 8.588L106.383 15.9711L110.677 11.6771L98.9999 0L87.3264 11.6736L91.6202 15.9676L91.62 15.9679ZM80 19L84.2941 14.7052L88.588 18.9991L84.2938 23.2932L80 19ZM91.62 22.0326L98.9999 29.412L106.383 22.0291L110.679 26.3208L110.677 26.3231L98.9999 38L87.3264 26.3264L87.3203 26.3203L91.6205 22.0321L91.62 22.0326ZM109.412 19.0018L113.706 14.7077L118 19.0015L113.706 23.2957L109.412 19.0018Z" fill="#F3BA2F"/>
<path d="M103.355 18.9977H103.357L98.9996 14.6405L95.7792 17.86L95.4093 18.2301L94.6462 18.9933L94.6401 18.9992L94.6462 19.0055L98.9996 23.3595L103.357 19.0023L103.359 18.9998L103.355 18.9977" fill="#F3BA2F"/>
<defs>
<clipPath id="clip0_28_392">
<rect width="24" height="24" fill="white" transform="translate(58.9707 3) rotate(45)"/>
</clipPath>
<clipPath id="clip1_28_392">
<rect width="38" height="38" fill="white" transform="translate(0 1)"/>
</clipPath>
</defs>
</svg>
