<svg width="214" height="38" viewBox="0 0 214 38" fill="none" xmlns="http://www.w3.org/2000/svg">
<path d="M21.9632 22.895C21.3061 21.565 20.4614 20.995 19.8983 20.615C19.2412 20.33 18.7719 20.33 18.7719 20.33C18.7719 20.33 16.8947 20.33 15.5807 22.895C14.1728 25.555 11.2632 27.645 7.6965 26.505C5.91317 25.935 4.78685 25.175 3.75439 24.89C4.41141 28.595 6.57018 31.16 9.38597 32.87C12.2018 34.58 15.6746 35.34 18.7719 35.34C24.9667 35.34 32.5693 32.11 33.7895 24.795C32.757 25.175 31.6307 25.84 29.8474 26.41C26.2807 27.645 23.3711 25.555 21.9632 22.895ZM22.9956 31.35C22.8079 31.825 22.5263 32.205 22.2447 32.585C21.6816 33.345 20.5553 34.295 18.6781 34.295C16.8009 34.295 15.6746 33.345 15.1114 32.585C14.8298 32.205 14.6421 31.825 14.4544 31.35H14.3605C11.6386 31.35 11.8263 29.07 11.8263 29.07C11.8263 29.07 12.7649 30.115 14.8298 29.83C16.8947 29.545 17.4579 28.88 17.4579 28.595C17.5518 28.31 17.4579 27.74 17.4579 27.74C17.4579 27.74 15.393 27.17 15.2991 24.985C15.2991 24.89 15.2991 24.89 15.2991 24.795C15.2991 23.465 16.8009 22.42 18.5842 22.42C20.3675 22.42 21.8693 23.465 21.8693 24.795C21.8693 24.89 21.8693 24.89 21.8693 24.985C21.6816 27.17 19.7105 27.74 19.7105 27.74C19.7105 27.74 19.6167 28.31 19.7105 28.595C19.8044 28.88 20.3675 29.545 22.3386 29.83C24.3097 30.115 25.3421 29.07 25.3421 29.07C25.3421 29.07 25.7175 31.35 22.9956 31.35Z" fill="#18171F"/>
<path d="M19.9921 31.73C19.8983 31.73 19.7106 31.635 19.6167 31.73C19.7106 31.635 19.8983 31.635 19.9921 31.73Z" fill="black"/>
<path d="M17.1763 31.92C17.364 31.73 17.6456 31.635 17.9271 31.635C17.6456 31.635 17.364 31.73 17.1763 31.92Z" fill="black"/>
<path d="M35.5726 13.49C35.291 10.64 34.634 7.40999 33.4138 4.93999C33.3199 4.74999 33.2261 4.55999 33.1322 4.36999C32.9445 3.98999 32.6629 3.51499 32.3813 3.13499C32.2875 3.03999 32.2875 3.03999 32.1936 2.94499C31.7243 2.46999 31.1612 2.08999 30.4103 1.89999C29.0024 1.61499 26.8436 2.08999 23.8401 5.69999C23.934 5.79499 24.0278 5.98499 24.0278 6.07999C24.0278 6.17499 24.1217 6.17499 24.1217 6.17499C24.2156 6.26999 24.2155 6.26999 24.3094 6.36499C24.4033 6.45999 24.4971 6.64999 24.591 6.74499C24.591 6.74499 23.8401 6.17499 21.9629 5.88999C21.3998 5.79499 20.8366 5.69999 20.1796 5.69999C19.898 5.69999 19.3348 5.69999 18.7717 5.69999C18.6778 5.69999 18.584 5.69999 18.4901 5.69999H18.3963C18.3024 5.69999 18.2085 5.69999 18.1147 5.69999H18.0208C17.927 5.69999 17.8331 5.69999 17.7392 5.69999H17.6454C17.5515 5.69999 17.4577 5.69999 17.3638 5.69999H17.2699H16.9884H16.8945C16.8006 5.69999 16.7068 5.69999 16.6129 5.69999H16.5191C16.4252 5.69999 16.3313 5.69999 16.3313 5.69999H16.2375C16.1436 5.69999 16.0498 5.69999 16.0498 5.69999H15.9559C15.862 5.69999 15.7682 5.69999 15.7682 5.69999H15.6743C15.5805 5.69999 15.5805 5.69999 15.4866 5.69999H15.3927C15.2989 5.69999 15.2989 5.69999 15.205 5.69999H15.1112C15.0173 5.69999 15.0173 5.69999 14.9234 5.69999H14.8296C14.7357 5.69999 14.7357 5.69999 14.6419 5.69999H14.548H14.3603H14.2664H14.1726H14.0787H13.9848H13.891H13.7971H13.7033H13.6094H13.5155H13.4217H13.3278H13.234H13.1401H13.0463C12.577 5.88999 12.3892 5.98499 12.3892 5.98499C12.4831 5.79499 12.577 5.69999 12.6708 5.60499C12.7647 5.50999 12.7647 5.41499 12.8585 5.41499C12.9524 5.22499 13.0463 5.12999 13.1401 4.93999C13.1401 4.93999 13.1401 4.93999 13.1401 4.84499C13.0463 4.74999 13.0463 4.74999 12.9524 4.65499L12.8585 4.55999L12.7647 4.46499L12.6708 4.36999L12.577 4.27499L12.4831 4.17999L12.3892 4.08499L12.2954 3.98999L12.2015 3.89499L12.1077 3.79999L12.0138 3.70499L11.9199 3.60999L12.2015 4.08499L12.1077 3.98999L12.0138 3.89499L11.9199 3.79999L11.8261 3.70499L11.7322 3.60999L11.6384 3.51499L11.5445 3.41999C11.5445 3.41999 11.4506 3.41999 11.4506 3.32499L11.3568 3.22999C11.3568 3.22999 11.2629 3.22999 11.2629 3.13499L11.1691 3.03999L11.0752 2.94499L10.9813 2.84999L10.8875 2.75499L10.7936 2.65999C10.7936 2.65999 10.6998 2.65999 10.6998 2.56499C10.6998 2.56499 10.6059 2.56499 10.6059 2.46999L10.3243 2.65999C10.3243 2.65999 10.2305 2.65999 10.2305 2.56499C10.2305 2.56499 10.1366 2.56499 10.1366 2.46999C10.1366 2.46999 10.0427 2.46999 10.0427 2.37499H9.94888C9.94888 2.37499 9.85502 2.37499 9.85502 2.27999H9.76116H9.6673H9.57344H9.47959H9.38573H9.29187H9.19801H9.10415H9.01029H8.91643H8.82257H8.72871H8.63485L8.72871 1.89999H8.63485H8.54099H8.44713H8.35327H8.25941H8.16555H8.07169H7.97783H7.88397H7.79011C7.79011 1.89999 7.79011 1.89999 7.69625 1.89999C7.69625 1.89999 7.69625 1.89999 7.60239 1.89999H7.69625H7.60239L7.50853 1.80499H7.41467H7.32081H7.22695V1.89999C7.22695 1.89999 7.22695 1.89999 7.13309 1.89999V1.89999H7.03923C7.03923 1.89999 7.03923 1.89999 6.94537 1.89999H6.85151H6.75765H6.6638H6.56994V1.99499H6.47608H6.38222H6.28836H6.1945H6.10064H6.00678H5.91292C5.7252 2.46999 5.53748 2.65999 5.34976 2.84999C5.2559 2.94499 5.2559 3.03999 5.16204 3.13499C4.97432 3.41999 4.69274 3.79999 4.50502 4.27499C4.3173 4.46499 4.22344 4.65499 4.12958 4.93999C3.37871 6.55499 2.81555 8.35999 2.44011 10.26C2.25239 11.4 2.06467 12.445 1.97081 13.49C1.87695 13.775 1.87695 14.06 1.87695 14.345C1.87695 14.44 1.97081 14.44 2.06467 14.535C2.15853 14.63 2.25239 14.63 2.34625 14.63C2.44011 14.63 2.53397 14.63 2.62783 14.63C3.47257 14.44 3.56643 13.3 3.56643 13.3C3.37871 9.11999 5.16204 5.98499 6.1945 4.55999C6.28836 4.46499 6.28836 4.36999 6.38222 4.36999C6.47608 4.17999 6.75765 4.08499 6.94537 3.98999C7.13309 3.89499 7.41467 3.98999 7.60239 3.98999C7.97783 4.17999 8.35327 4.46499 8.63485 4.74999C8.82257 4.93999 8.91643 5.03499 9.01029 5.22499C9.6673 5.98499 9.94888 6.93499 10.0427 7.50499C10.0427 7.59999 10.0427 7.78999 10.0427 7.88499C9.94888 7.97999 9.85502 8.07499 9.76116 8.16999C9.29187 8.45499 8.82257 8.73999 8.44713 9.11999C8.35327 9.21499 3.00327 15.96 3.66029 23.845C3.66029 23.94 3.66029 24.13 3.66029 24.225C3.75415 24.51 3.75415 24.7 3.75415 24.89C4.7866 25.27 5.91292 25.935 7.69625 26.505C11.2629 27.645 14.1726 25.555 15.5805 22.895C16.8945 20.33 18.7717 20.33 18.7717 20.33C18.7717 20.33 19.241 20.33 19.898 20.615C20.555 20.9 21.3059 21.565 21.9629 22.895C23.3708 25.555 26.2805 27.645 29.8471 26.505C31.6305 25.935 32.7568 25.175 33.7892 24.89C33.7892 24.7 33.8831 24.51 33.8831 24.32C33.8831 24.225 33.8831 24.035 33.8831 23.94C34.5401 15.96 29.1901 9.30999 29.0963 9.21499C28.627 8.83499 28.1577 8.54999 27.6884 8.35999C27.5945 8.26499 27.5006 8.16999 27.4068 8.07499C27.3129 7.97999 27.3129 7.78999 27.4068 7.69499C27.5945 7.12499 27.8761 6.17499 28.4392 5.41499C28.5331 5.22499 28.7208 5.12999 28.8147 4.93999C29.0963 4.65499 29.4717 4.36999 29.941 4.17999C30.1287 4.08499 30.4103 4.08499 30.598 4.17999C30.7857 4.27499 30.9734 4.36999 31.1612 4.55999C31.255 4.65499 31.255 4.65499 31.3489 4.74999C32.2875 6.17499 34.1647 9.30999 34.0708 13.49C34.0708 13.49 34.1647 14.63 35.0094 14.82C35.1033 14.82 35.1971 14.82 35.291 14.82C35.3848 14.82 35.4787 14.725 35.5726 14.725C35.6664 14.725 35.6664 14.63 35.7603 14.535C35.6664 14.06 35.6664 13.775 35.5726 13.49Z" fill="#E70C00"/>
<path d="M12.3897 14.915C12.5775 15.2 12.7652 15.485 13.0468 15.675C13.7038 16.245 14.5485 16.435 15.2055 16.055C16.0503 15.58 16.1441 14.25 15.4871 13.11V13.015C14.8301 11.875 13.6099 11.4 12.7652 11.875H12.6713C11.7327 12.445 11.6389 13.775 12.3897 14.915Z" fill="#18171F"/>
<path d="M5.63189 10.64C6.94593 8.36 9.19856 5.225 6.19505 4.56C5.25645 5.985 3.37926 9.12 3.47312 13.3C3.47312 13.3 4.31786 12.92 5.63189 10.64Z" fill="#18171F"/>
<path d="M8.63525 4.75C8.82297 4.94 8.91683 5.035 9.01069 5.225C8.91683 5.035 8.82297 4.94 8.63525 4.75Z" fill="#18171F"/>
<path d="M8.44722 9.12001C8.91652 8.74001 9.38581 8.45501 9.85511 8.26501C9.94897 8.17001 10.0428 8.07501 10.1367 7.98001C10.2306 7.88501 10.2306 7.69501 10.1367 7.60001C9.94897 7.03001 9.66739 6.08001 9.10424 5.32001C8.91652 5.13001 8.82266 4.94001 8.63494 4.75001C8.35336 4.46501 7.97792 4.18001 7.50862 3.99001C7.3209 3.89501 7.03932 3.89501 6.8516 3.99001C6.66388 3.99001 6.47616 4.18001 6.28845 4.37001C6.28845 4.37001 6.19459 4.46501 6.19459 4.56001C9.1981 5.22501 6.94546 8.45501 5.63143 10.64C4.31739 12.92 3.47266 13.3 3.47266 13.3C3.47266 13.87 3.56652 14.535 3.66038 15.105C3.66038 15.2 3.66038 15.2 3.75424 15.2L3.84809 15.295C3.94195 15.295 3.94195 15.295 4.03581 15.295L4.12967 15.2C4.69283 13.775 6.10073 10.925 8.44722 9.12001Z" fill="#DBBDBF"/>
<path d="M3.28524 24.7C3.47296 24.7 3.66068 24.795 3.75453 24.795C3.75453 24.7 3.75454 24.51 3.66068 24.225C3.66068 24.13 3.66068 23.94 3.66068 23.845C2.9098 15.865 8.35366 9.215 8.44752 9.12C6.10103 10.925 4.69313 13.775 4.12997 15.2L4.03611 15.295C4.03611 15.295 3.94225 15.295 3.84839 15.295C3.75453 15.295 3.75453 15.295 3.75453 15.2L3.66068 15.105C3.56682 14.535 3.47296 13.87 3.47296 13.3C3.47296 13.3 3.3791 14.44 2.53436 14.63C2.4405 14.63 2.34664 14.63 2.25278 14.63C2.15892 14.63 2.06506 14.535 1.9712 14.535C1.87734 14.535 1.87734 14.44 1.78348 14.345C1.59576 16.435 1.59576 18.24 1.59576 19.19C1.59576 19.57 1.59576 19.855 1.59576 19.855V19.95C1.59576 19.95 1.59576 19.95 1.59576 20.045C1.59576 20.045 1.12646 21.66 1.12646 23.845C1.12646 24.13 1.12646 24.32 1.12646 24.605C1.12646 24.795 1.12646 24.985 1.12646 25.175C1.9712 24.7 2.62822 24.605 3.28524 24.7Z" fill="#A50400"/>
<path d="M15.2054 30.21C16.9887 29.925 17.9273 29.26 18.3028 28.88V27.55C17.7396 27.455 17.2703 27.265 16.801 26.98L16.7071 26.885C16.6133 26.79 16.6133 26.79 16.5194 26.695C15.9563 26.22 15.5808 25.555 15.487 24.985C15.6747 27.17 17.6457 27.74 17.6457 27.74C17.6457 27.74 17.7396 28.31 17.6457 28.595C17.5519 28.88 16.9887 29.545 15.0177 29.83C12.9528 30.115 12.0142 29.07 12.0142 29.07C12.0142 29.07 12.8589 30.59 15.2054 30.21Z" fill="#DBBDBF"/>
<path d="M13.1405 6.46001C13.0466 6.55501 12.9527 6.74501 12.8589 6.84001C13.0466 6.74501 13.2343 6.65001 13.5159 6.55501H13.6098H13.7036H13.7975H13.8913H13.9852H14.0791H14.1729C14.1729 6.55501 14.1729 6.55501 14.2668 6.55501H14.3606H14.4545H14.5484H14.6422H14.7361H14.8299H15.0177H15.1115C15.2054 6.55501 15.2054 6.55501 15.2992 6.55501H15.3931C15.487 6.55501 15.487 6.55501 15.5808 6.55501H15.6747C15.7685 6.55501 15.7685 6.55501 15.8624 6.55501H15.9563C16.0501 6.55501 16.0501 6.55501 16.144 6.55501H16.2378C16.3317 6.55501 16.3317 6.55501 16.4256 6.55501H16.5194C16.6133 6.55501 16.7071 6.55501 16.7071 6.55501H16.801C16.8949 6.55501 16.9887 6.55501 16.9887 6.55501H17.0826C17.1764 6.55501 17.2703 6.55501 17.3642 6.55501H17.458H17.7396H17.8334C17.9273 6.55501 18.0212 6.55501 18.115 6.55501H18.2089C18.3027 6.55501 18.3966 6.55501 18.4905 6.55501H18.5843C18.6782 6.55501 18.772 6.55501 18.8659 6.55501H18.9598C19.0536 6.55501 19.1475 6.55501 19.2413 6.55501C19.8045 6.55501 20.2738 6.55501 20.837 6.65001C21.4001 6.65001 21.9633 6.74501 22.6203 6.84001C24.4036 7.22001 25.2484 7.69501 25.2484 7.69501C25.1545 7.50501 25.0606 7.41001 24.9668 7.31501C24.8729 7.22001 24.8729 7.12501 24.7791 7.12501C24.7791 7.12501 24.4975 6.84001 23.8405 6.65001C22.9957 6.27001 21.494 5.79501 19.3352 5.79501C17.1764 5.79501 15.6747 6.27001 14.8299 6.65001C14.2668 6.93501 13.8913 7.12501 13.8913 7.12501C13.3282 6.27001 13.2343 6.36501 13.1405 6.46001Z" fill="#FF3E39"/>
<path d="M5.3501 2.85001C5.53782 2.66001 5.72554 2.47001 6.00712 2.28001H6.10098H6.19483H6.28869H6.38255H6.47641H6.57027H6.66413H6.75799H6.85185H6.94571H7.03957H7.13343H7.22729C7.22729 2.28001 7.22729 2.28001 7.32115 2.28001H7.41501H7.50887H7.60273C7.60273 2.28001 7.60273 2.28001 7.69659 2.28001H7.79045H7.88431H7.97817H8.07203H8.16589H8.25975H8.35361H8.44747H8.54133H8.63519C8.63519 2.28001 8.63519 2.28001 8.72905 2.28001H8.8229H8.91676H9.01062H9.10448H9.19834H9.2922L8.44747 1.90001H8.54133H8.63519H8.72905H8.8229H8.91676H9.01062H9.10448H9.19834H9.2922H9.38606H9.47992H9.57378H9.66764H9.7615H9.85536H9.94922H10.0431C10.0431 1.90001 10.1369 1.90001 10.1369 1.99501H10.2308C10.2308 1.99501 10.3247 1.99501 10.3247 2.09001C10.3247 2.09001 10.4185 2.09001 10.4185 2.18501C10.4185 2.18501 10.5124 2.18501 10.5124 2.28001L10.6062 2.37501C10.6062 2.37501 10.7001 2.37501 10.7001 2.47001C10.7001 2.47001 10.794 2.47001 10.794 2.56501L10.8878 2.66001L10.9817 2.75501L11.0755 2.85001L11.1694 2.94501L11.2633 3.04001C11.2633 3.04001 11.3571 3.04001 11.3571 3.13501L11.451 3.23001C11.451 3.23001 11.5448 3.23001 11.5448 3.32501L11.6387 3.42001C11.6387 3.42001 11.7326 3.42001 11.7326 3.51501L11.8264 3.61001L11.9203 3.70501L12.0141 3.80001L12.108 3.89501L12.2019 3.99001L12.2957 4.08501L12.3896 4.18001L12.4834 4.27501L12.5773 4.37001L12.6712 4.46501L12.765 4.56001L12.8589 4.65501L12.9527 4.75001L13.0466 4.84501L13.1404 4.94001L13.2343 5.03501L13.3282 5.13001C13.422 5.22501 13.422 5.22501 13.5159 5.32001C13.7975 4.94001 14.1729 4.56001 14.5483 4.27501C13.2343 2.94501 11.9203 1.90001 10.7001 1.33001C10.6062 1.23501 10.5124 1.23501 10.4185 1.23501C10.4185 1.23501 10.3247 1.23501 10.3247 1.14001C10.3247 1.14001 10.3247 1.14001 10.2308 1.14001H10.1369C10.0431 1.14001 10.0431 1.14001 9.94922 1.04501C9.2922 0.85501 8.72905 0.76001 8.16589 0.76001C7.69659 0.76001 7.13343 0.95001 6.75799 1.14001C6.38255 1.80501 5.8194 2.28001 5.3501 2.85001Z" fill="#FF3E39"/>
<path d="M22.3383 15.96C22.9953 16.34 23.8401 16.15 24.4971 15.58C24.6848 15.39 24.9664 15.2 25.0602 14.915C25.0602 14.915 25.0602 14.915 25.0602 14.82C25.7173 13.68 25.6234 12.35 24.7787 11.78C24.7787 11.78 24.7787 11.78 24.6848 11.78C23.8401 11.305 22.6199 11.78 21.9629 12.92C21.9629 12.92 21.9629 12.92 21.9629 13.015C21.3997 14.155 21.4936 15.485 22.3383 15.96Z" fill="#18171F"/>
<path d="M31.9124 10.64C33.2264 12.825 33.9773 13.205 34.0711 13.3C34.165 9.12 32.3817 5.985 31.3492 4.56C28.3457 5.225 30.5983 8.455 31.9124 10.64Z" fill="#18171F"/>
<path d="M28.5332 5.225C28.6271 5.035 28.8148 4.94 28.9086 4.75C28.7209 4.94 28.6271 5.035 28.5332 5.225Z" fill="#18171F"/>
<path d="M20.4616 32.11C20.4616 32.015 20.3677 31.92 20.18 31.825C20.18 31.825 20.18 31.825 20.0861 31.825C20.0861 31.825 20.0861 31.825 19.9923 31.825C19.8984 31.825 19.7107 31.73 19.6168 31.825C19.6168 31.825 19.6168 31.825 19.523 31.825H19.4291C19.4291 31.825 19.4291 31.825 19.3353 31.825C19.2414 31.825 19.1475 31.92 19.0537 32.015C18.9598 32.11 18.866 32.205 18.866 32.3C18.6782 31.92 18.3967 31.73 18.0212 31.73C17.7396 31.73 17.4581 31.825 17.2703 32.015C17.1765 32.11 17.1765 32.11 17.1765 32.205C17.1765 32.3 17.0826 32.395 17.1765 32.585C17.1765 32.68 17.2703 32.775 17.3642 32.87C17.4581 32.965 17.5519 33.06 17.6458 33.06C18.1151 33.25 18.4905 33.345 18.9598 33.25C19.4291 33.25 19.8984 33.155 20.2739 33.06C20.18 32.965 20.6493 32.68 20.4616 32.11Z" fill="#FF9C9C"/>
<path d="M33.508 15.105L33.6018 15.2C33.6018 15.2 33.6957 15.2 33.7896 15.2C33.8834 15.2 33.8834 15.2 33.8834 15.105L33.9773 15.01C34.0711 14.44 34.165 13.775 34.165 13.205C34.165 13.205 33.3203 12.825 32.0062 10.545C30.6922 8.265 28.4396 5.13 31.4431 4.46501C31.3492 4.37001 31.3492 4.27501 31.2554 4.27501C31.1615 4.08501 30.8799 3.99001 30.6922 3.89501C30.5045 3.80001 30.2229 3.89501 30.0352 3.89501C29.6597 4.08501 29.2843 4.37001 28.9089 4.65501C28.7212 4.84501 28.6273 4.94001 28.5334 5.13001C27.8764 5.89001 27.5948 6.84 27.501 7.41C27.501 7.505 27.501 7.695 27.501 7.79C27.501 7.885 27.6887 7.98 27.7826 8.075C28.2519 8.36 28.7212 8.645 29.1905 8.93C31.4431 10.925 32.851 13.775 33.508 15.105Z" fill="#DBBDBF"/>
<path d="M35.6665 14.345C35.6665 14.44 35.5726 14.44 35.4788 14.535C35.3849 14.63 35.291 14.63 35.1972 14.63C35.1033 14.63 35.0095 14.63 34.9156 14.63C34.1647 14.44 33.977 13.3 33.977 13.3C33.977 13.87 33.8831 14.535 33.7893 15.105C33.7893 15.2 33.7893 15.2 33.6954 15.2L33.6016 15.295C33.5077 15.295 33.5077 15.295 33.4138 15.295L33.32 15.2C32.7568 13.87 31.3489 10.925 29.0024 9.12C29.0963 9.215 34.4463 15.96 33.7893 23.845C33.7893 23.94 33.7893 24.13 33.7893 24.225C33.7893 24.415 33.6954 24.605 33.6954 24.795C33.8831 24.7 34.0709 24.7 34.1647 24.7C34.8217 24.605 35.4788 24.7 36.2296 25.175C36.2296 24.985 36.2296 24.795 36.2296 24.605C36.2296 24.32 36.2296 24.13 36.2296 23.845C36.2296 21.66 35.7603 20.045 35.7603 20.045C35.7603 20.045 35.7603 20.045 35.7603 19.95V19.855C35.7603 19.855 35.7603 19.57 35.7603 19.19C35.9481 18.24 35.8542 16.435 35.6665 14.345Z" fill="#A50400"/>
<path d="M21.0245 26.695C20.9307 26.79 20.9307 26.79 20.8368 26.885L20.743 26.98C20.2737 27.265 19.8044 27.455 19.2412 27.55V28.88C19.7105 29.26 20.5552 29.925 22.3386 30.21C24.6851 30.495 25.5298 29.07 25.5298 29.07C25.5298 29.07 24.5912 30.115 22.5263 29.83C20.4614 29.545 19.8982 28.88 19.8982 28.595C19.8044 28.31 19.8982 27.74 19.8982 27.74C19.8982 27.74 21.9631 27.17 22.057 24.985C21.9631 25.555 21.5877 26.22 21.0245 26.695Z" fill="#DBBDBF"/>
<path d="M30.5041 1.89999C31.1611 1.99499 31.8181 2.37499 32.1936 2.94499C31.7243 2.37499 31.1611 1.89999 30.598 1.61499C30.1287 1.42499 29.6594 1.23499 29.1901 1.23499C28.6269 1.23499 28.0638 1.32999 27.4067 1.51999C27.3129 1.51999 27.3129 1.51999 27.219 1.61499C27.219 1.61499 27.219 1.61499 27.1252 1.61499C27.1252 1.61499 27.1252 1.61499 27.0313 1.61499C26.9374 1.61499 26.8436 1.70999 26.7497 1.70999H26.6559C25.4357 2.27999 24.1217 3.32499 22.8076 4.65499C23.1831 4.93998 23.5585 5.22498 23.8401 5.69998C26.9374 2.08999 29.0962 1.61499 30.5041 1.89999Z" fill="#FF3E39"/>
<path d="M18.7719 31.445C17.2701 30.875 16.5193 31.92 16.3315 32.205C16.6131 32.49 16.9886 32.775 17.4579 32.965C17.364 32.87 17.2701 32.87 17.1763 32.775C17.0824 32.68 17.0824 32.585 16.9886 32.49C16.9886 32.395 16.9886 32.205 16.9886 32.11C16.9886 32.015 17.0824 32.015 17.0824 31.92C17.2701 31.73 17.5517 31.635 17.8333 31.635C18.2087 31.635 18.5842 31.825 18.678 32.205C18.678 32.11 18.7719 32.015 18.8658 31.92C18.9596 31.825 19.0535 31.73 19.1473 31.73C19.1473 31.73 19.1473 31.73 19.2412 31.73C19.2412 31.73 19.2412 31.73 19.3351 31.73C19.4289 31.73 19.6166 31.73 19.7105 31.73C19.7105 31.73 19.7105 31.73 19.8044 31.73C19.8044 31.73 19.8044 31.73 19.8982 31.73C19.9921 31.825 20.0859 31.92 20.1798 32.015C20.3675 32.585 19.8982 32.87 19.8044 32.87C20.1798 32.68 20.5552 32.49 20.9307 32.11C21.0245 31.92 20.2736 30.97 18.7719 31.445Z" fill="#E06E6E"/>
<path d="M8.4473 34.77C9.3859 35.245 10.4184 35.625 11.4508 35.91C12.7648 36.29 14.0789 36.575 15.3929 36.67C15.9561 36.765 16.5192 36.765 17.0824 36.86C17.5517 36.86 18.021 36.86 18.4903 36.955C18.5841 36.955 18.678 36.955 18.7719 36.955C18.9596 36.955 19.1473 36.955 19.335 36.955C19.4289 36.955 19.4289 36.955 19.5227 36.955C20.0859 36.955 20.6491 36.955 21.1184 36.86C21.2122 36.86 21.2122 36.86 21.3061 36.86H21.4938H21.5877C21.6815 36.86 21.6815 36.86 21.7754 36.86C24.9666 36.48 27.7824 35.625 30.1289 34.295C30.1289 34.295 30.2227 34.295 30.2227 34.2L30.3166 34.105C31.1613 33.63 31.9122 33.06 32.6631 32.395C33.2262 31.92 33.6955 31.445 34.1648 30.875C34.2587 30.78 34.2587 30.78 34.3526 30.685C34.6341 30.305 34.9157 29.925 35.1973 29.545C35.5727 28.975 35.7605 28.31 35.9482 27.645C36.1359 26.98 36.3236 26.22 36.4175 25.555C36.4175 25.46 36.4175 25.365 36.4175 25.27C35.5727 24.795 35.0096 24.7 34.3526 24.795C34.1648 24.795 33.9771 24.89 33.8833 24.89C32.6631 32.205 25.0605 35.435 18.8657 35.435C15.7684 35.435 12.2955 34.675 9.47976 32.965C6.66397 31.255 4.41133 28.595 3.84818 24.985C3.66046 24.89 3.47274 24.89 3.37888 24.89C2.72186 24.795 2.06484 24.89 1.31396 25.365C1.31396 25.46 1.31396 25.555 1.31396 25.65C1.40782 26.41 1.50168 27.075 1.78326 27.74C1.78326 28.025 1.87712 28.5 2.06484 28.88C2.1587 29.07 2.25256 29.26 2.34642 29.545C2.34642 29.545 2.34642 29.64 2.44028 29.64C2.628 30.02 2.90958 30.4 3.19116 30.78C4.59905 32.395 6.38239 33.725 8.4473 34.77Z" fill="#DBBDBF"/>
<path d="M25.5298 29.07C25.5298 29.07 24.685 30.59 22.3385 30.21C20.5552 29.925 19.6166 29.26 19.2412 28.88V27.55C19.8043 27.455 20.2736 27.265 20.7429 26.98L20.8368 26.885C20.9307 26.79 20.9307 26.79 21.0245 26.695C21.5877 26.22 21.9631 25.555 22.057 24.985C22.057 24.89 22.057 24.89 22.057 24.795C22.057 23.465 20.5552 22.42 18.7719 22.42C16.9885 22.42 15.4868 23.465 15.4868 24.795C15.4868 24.89 15.4868 24.89 15.4868 24.985C15.5807 25.555 15.9561 26.22 16.5192 26.695C16.6131 26.79 16.6131 26.79 16.707 26.885L16.8008 26.98C17.2701 27.265 17.7394 27.455 18.3026 27.55V28.88C17.8333 29.26 16.9885 29.925 15.2052 30.21C12.8587 30.495 12.014 29.07 12.014 29.07C12.014 29.07 11.8263 31.35 14.5482 31.35H14.6421C14.8298 31.825 15.0175 32.205 15.2991 32.585C15.8622 33.345 16.9885 34.295 18.8657 34.295C20.7429 34.295 21.8692 33.345 22.4324 32.585C22.714 32.205 22.9017 31.825 23.0894 31.35H23.1833C25.7175 31.35 25.5298 29.07 25.5298 29.07ZM20.0859 32.965C19.6166 33.155 19.2412 33.25 18.7719 33.155C18.3026 33.155 17.8333 33.06 17.4578 32.965C17.364 32.87 17.2701 32.87 17.1763 32.775C17.2701 32.87 17.364 32.965 17.4578 32.965C17.0824 32.775 16.707 32.585 16.3315 32.205C16.5192 31.92 17.2701 30.97 18.7719 31.445C20.2736 30.875 21.0245 31.92 21.2122 32.205C20.9307 32.49 20.5552 32.775 20.0859 32.965Z" fill="black"/>
<path d="M25.2481 36.1H28.627C28.627 36.1 28.1577 36.29 27.97 36.385C27.7823 36.48 27.5946 36.48 27.4069 36.575C27.2191 36.67 27.0314 36.67 26.8437 36.765H26.7498C26.5621 36.86 26.4683 36.86 26.2805 36.86L26.0928 37.05C25.999 37.05 25.8112 37.145 25.7174 37.145C25.6235 37.145 25.6235 37.145 25.5297 37.145C25.3419 37.145 25.1542 37.24 24.9665 37.24C24.7788 37.24 24.5911 37.335 24.4033 37.335C24.3095 37.335 24.3095 37.335 24.2156 37.335C24.1218 37.335 23.934 37.43 23.8402 37.43H23.6525C23.4647 37.43 23.277 37.525 23.0893 37.525C22.4323 37.62 21.6814 37.715 20.9305 37.715C20.2735 37.905 19.5226 38 18.7718 38C17.3639 38 15.8621 37.905 14.4542 37.715C14.2665 37.715 14.0788 37.62 13.8911 37.62H13.7033C13.6095 37.62 13.4218 37.525 13.3279 37.525C13.234 37.525 13.234 37.525 13.1402 37.525C12.9525 37.525 12.7647 37.43 12.577 37.43C12.3893 37.43 12.2016 37.335 12.0139 37.335C11.92 37.335 11.92 37.335 11.8262 37.335C11.7323 37.335 11.5446 37.24 11.4507 37.24L11.263 36.955C11.0753 36.955 10.9814 36.86 10.7937 36.86H10.6998C10.3244 36.765 9.94896 36.575 9.57352 36.48C9.3858 36.29 9.10422 36.195 8.9165 36.1H12.2955C13.3279 36.385 14.3604 36.575 15.3928 36.67C15.956 36.765 16.5191 36.765 17.0823 36.86C17.5516 36.86 18.0209 36.86 18.4902 36.955C18.584 36.955 18.6779 36.955 18.7718 36.955C18.9595 36.955 19.1472 36.955 19.3349 36.955C19.4288 36.955 19.4288 36.955 19.5226 36.955C20.0858 36.955 20.649 36.955 21.1183 36.86C21.2121 36.86 21.2121 36.86 21.306 36.86H21.4937H21.5876C21.6814 36.86 21.6814 36.86 21.7753 36.86C22.9955 36.575 24.1218 36.385 25.2481 36.1Z" fill="black"/>
<path d="M35.1035 31.35C33.6018 33.155 31.8184 34.58 29.5658 35.625H26.75C27.9702 35.245 29.0965 34.77 30.1289 34.105C30.1289 34.105 30.2228 34.105 30.2228 34.01L30.3167 33.915C31.1614 33.44 31.9123 32.87 32.6632 32.205C33.2263 31.73 33.6956 31.255 34.1649 30.685C34.2588 30.59 34.2588 30.59 34.3526 30.495C34.6342 30.115 34.9158 29.735 35.1974 29.355C35.5728 28.785 35.7605 28.12 35.9482 27.455C36.136 26.79 36.3237 26.03 36.4175 25.365C36.4175 25.27 36.4175 25.175 36.4175 25.08C36.4175 24.89 36.4175 24.7 36.4175 24.51C36.4175 24.225 36.4175 24.035 36.4175 23.75C36.4175 21.565 35.9482 19.95 35.9482 19.95C35.9482 19.95 35.9482 19.95 35.9482 19.855V19.76C35.9482 19.76 35.9482 19.475 35.9482 19.095C35.9482 18.145 35.9482 16.34 35.7605 14.25C35.7605 13.965 35.6667 13.68 35.6667 13.395C35.3851 10.545 34.7281 7.31499 33.5079 4.84499C33.414 4.65499 33.3202 4.46499 33.2263 4.27499C33.0386 3.89499 32.757 3.41999 32.4754 3.03999C32.3816 2.94499 32.3816 2.94499 32.2877 2.84999C31.8184 2.27999 31.2553 1.80499 30.6921 1.51999C30.2228 1.32999 29.7535 1.13999 29.2842 1.13999C28.7211 1.13999 28.1579 1.23499 27.5009 1.42499C27.407 1.42499 27.407 1.42499 27.3132 1.51999C27.3132 1.51999 27.3132 1.51999 27.2193 1.51999C27.2193 1.51999 27.2193 1.51999 27.1254 1.51999C27.0316 1.51999 26.9377 1.61499 26.8439 1.61499H26.75C25.5298 2.18499 24.2158 3.22999 22.9018 4.55999C23.0895 4.74999 23.2772 4.93999 23.4649 5.12999C23.7465 5.41499 23.9342 5.79499 24.1219 6.07999C24.1219 6.17499 24.2158 6.17499 24.2158 6.17499C24.2158 6.17499 23.9342 5.88999 23.2772 5.69999C22.4325 5.31999 20.9307 4.84499 18.7719 4.84499C16.6132 4.84499 15.1114 5.31999 14.2667 5.69999C13.7035 5.98499 13.3281 6.17499 13.3281 6.17499C13.4219 5.98499 13.5158 5.88999 13.6096 5.69999V5.60499C13.8912 5.22499 14.2667 4.84499 14.6421 4.55999C13.3281 3.22999 12.014 2.18499 10.7939 1.61499C10.7 1.51999 10.6061 1.51999 10.5123 1.51999C10.5123 1.51999 10.4184 1.51999 10.4184 1.42499C10.4184 1.42499 10.4184 1.42499 10.3246 1.42499H10.2307C10.1368 1.42499 10.1368 1.42499 10.043 1.32999C9.38596 1.13999 8.82281 1.04499 8.25965 1.04499C7.79035 1.04499 7.22719 1.23499 6.85175 1.42499C6.38246 1.80499 5.8193 2.27999 5.35 2.84999C5.35 2.94499 5.25614 3.03999 5.16228 3.13499C4.97456 3.41999 4.69298 3.79999 4.50526 4.27499C4.31754 4.46499 4.22368 4.65499 4.12982 4.93999C3.37895 6.55499 2.81579 8.35999 2.44035 10.26C2.25263 11.4 2.06491 12.445 1.97105 13.49C1.87719 13.775 1.87719 14.06 1.87719 14.345C1.68947 16.435 1.68947 18.24 1.68947 19.19C1.68947 19.57 1.68947 19.855 1.68947 19.855V19.95C1.68947 19.95 1.68947 19.95 1.68947 20.045C1.68947 20.045 1.22018 21.66 1.22018 23.845C1.22018 24.13 1.22018 24.32 1.22018 24.605C1.22018 24.795 1.22018 24.985 1.22018 25.175C1.22018 25.27 1.22018 25.365 1.22018 25.46C1.31404 26.22 1.40789 26.885 1.59561 27.55C1.78333 28.025 1.87719 28.5 2.06491 28.88C2.15877 29.07 2.25263 29.26 2.34649 29.545C2.34649 29.545 2.34649 29.64 2.44035 29.64C2.62807 30.02 2.90965 30.4 3.19123 30.78C4.59912 32.49 6.38246 33.82 8.44737 34.865C9.19825 35.245 9.94912 35.53 10.7939 35.815H7.97807C5.8193 34.77 3.94211 33.25 2.44035 31.54C0.844737 29.45 0 26.885 0 23.75C0 21.755 0.375439 20.14 0.563158 19.76C0.563158 19.285 0.469298 16.53 0.844737 13.3C1.40789 8.45499 2.53421 4.74999 4.31754 2.46999C5.44386 0.949987 6.75789 0.0949869 8.35351 0.0949869C9.7614 -1.30897e-05 11.357 0.569987 13.0465 1.80499C14.2667 2.75499 15.2991 3.79999 15.7684 4.27499C16.6132 4.08499 17.5518 3.89499 18.8658 3.89499C20.086 3.89499 21.1184 4.08499 21.9632 4.27499C22.4325 3.79999 23.4649 2.75499 24.6851 1.80499C26.3746 0.569987 27.9702 -1.30897e-05 29.3781 0.0949869C30.8798 0.189987 32.2877 1.04499 33.3202 2.46999C35.1035 4.84499 36.2298 8.45499 36.793 13.3C37.1684 16.625 37.0746 19.285 37.0746 19.76C37.1684 20.14 37.5439 21.755 37.6377 23.75C37.5439 26.885 36.6991 29.45 35.1035 31.35Z" fill="black"/>
<path d="M11.7327 23.465C13.2344 23.465 14.4546 21.945 14.4546 19.95C14.4546 18.05 13.2344 16.435 11.7327 16.435C10.2309 16.435 9.01074 17.955 9.01074 19.95C9.01074 21.945 10.2309 23.465 11.7327 23.465Z" fill="black"/>
<path d="M26.0932 23.465C27.595 23.465 28.8151 21.945 28.8151 19.95C28.8151 18.05 27.595 16.435 26.0932 16.435C24.5915 16.435 23.3713 17.955 23.3713 19.95C23.2774 21.945 24.4976 23.465 26.0932 23.465Z" fill="black"/>
<path d="M12.3895 19.855C12.8588 19.855 13.2343 19.38 13.2343 18.715C13.2343 18.05 12.8588 17.575 12.3895 17.575C11.9202 17.575 11.5448 18.05 11.5448 18.715C11.4509 19.285 11.9202 19.855 12.3895 19.855Z" fill="#18171F"/>
<path d="M25.5297 19.855C25.999 19.855 26.3744 19.38 26.3744 18.715C26.3744 18.05 25.999 17.575 25.5297 17.575C25.0604 17.575 24.6849 18.05 24.6849 18.715C24.5911 19.285 25.0604 19.855 25.5297 19.855Z" fill="#18171F"/>
<path d="M29.5656 35.72L28.627 36.195H25.248L26.7498 35.72" fill="black"/>
<path d="M8.91662 36.1L7.97803 35.625H10.7938L12.2956 36.1" fill="black"/>
<path d="M21.9632 22.895C21.3061 21.565 20.4614 20.995 19.8983 20.615C19.2412 20.33 18.7719 20.33 18.7719 20.33C18.7719 20.33 16.8947 20.33 15.5807 22.895C14.1728 25.555 11.2632 27.645 7.6965 26.505C5.91317 25.935 4.78685 25.175 3.75439 24.89C4.41141 28.595 6.57018 31.16 9.38597 32.87C12.2018 34.58 15.6746 35.34 18.7719 35.34C24.9667 35.34 32.5693 32.11 33.7895 24.795C32.757 25.175 31.6307 25.84 29.8474 26.41C26.2807 27.645 23.3711 25.555 21.9632 22.895ZM22.9956 31.35C22.8079 31.825 22.5263 32.205 22.2447 32.585C21.6816 33.345 20.5553 34.295 18.6781 34.295C16.8009 34.295 15.6746 33.345 15.1114 32.585C14.8298 32.205 14.6421 31.825 14.4544 31.35H14.3605C11.6386 31.35 11.8263 29.07 11.8263 29.07C11.8263 29.07 12.7649 30.115 14.8298 29.83C16.8947 29.545 17.4579 28.88 17.4579 28.595C17.5518 28.31 17.4579 27.74 17.4579 27.74C17.4579 27.74 15.393 27.17 15.2991 24.985C15.2991 24.89 15.2991 24.89 15.2991 24.795C15.2991 23.465 16.8009 22.42 18.5842 22.42C20.3675 22.42 21.8693 23.465 21.8693 24.795C21.8693 24.89 21.8693 24.89 21.8693 24.985C21.6816 27.17 19.7105 27.74 19.7105 27.74C19.7105 27.74 19.6167 28.31 19.7105 28.595C19.8044 28.88 20.3675 29.545 22.3386 29.83C24.3097 30.115 25.3421 29.07 25.3421 29.07C25.3421 29.07 25.7175 31.35 22.9956 31.35Z" fill="white"/>
<path d="M19.9921 31.73C19.8983 31.73 19.7106 31.635 19.6167 31.73C19.7106 31.635 19.8983 31.635 19.9921 31.73Z" fill="black"/>
<path d="M17.1763 31.92C17.364 31.73 17.6456 31.635 17.9271 31.635C17.6456 31.635 17.364 31.73 17.1763 31.92Z" fill="black"/>
<path d="M35.5726 13.49C35.291 10.64 34.634 7.40999 33.4138 4.93999C33.3199 4.74999 33.2261 4.55999 33.1322 4.36999C32.9445 3.98999 32.6629 3.51499 32.3813 3.13499C32.2875 3.03999 32.2875 3.03999 32.1936 2.94499C31.7243 2.46999 31.1612 2.08999 30.4103 1.89999C29.0024 1.61499 26.8436 2.08999 23.8401 5.69999C23.934 5.79499 24.0278 5.98499 24.0278 6.07999C24.0278 6.17499 24.1217 6.17499 24.1217 6.17499C24.2156 6.26999 24.2155 6.26999 24.3094 6.36499C24.4033 6.45999 24.4971 6.64999 24.591 6.74499C24.591 6.74499 23.8401 6.17499 21.9629 5.88999C21.3998 5.79499 20.8366 5.69999 20.1796 5.69999C19.898 5.69999 19.3348 5.69999 18.7717 5.69999C18.6778 5.69999 18.584 5.69999 18.4901 5.69999H18.3963C18.3024 5.69999 18.2085 5.69999 18.1147 5.69999H18.0208C17.927 5.69999 17.8331 5.69999 17.7392 5.69999H17.6454C17.5515 5.69999 17.4577 5.69999 17.3638 5.69999H17.2699H16.9884H16.8945C16.8006 5.69999 16.7068 5.69999 16.6129 5.69999H16.5191C16.4252 5.69999 16.3313 5.69999 16.3313 5.69999H16.2375C16.1436 5.69999 16.0498 5.69999 16.0498 5.69999H15.9559C15.862 5.69999 15.7682 5.69999 15.7682 5.69999H15.6743C15.5805 5.69999 15.5805 5.69999 15.4866 5.69999H15.3927C15.2989 5.69999 15.2989 5.69999 15.205 5.69999H15.1112C15.0173 5.69999 15.0173 5.69999 14.9234 5.69999H14.8296C14.7357 5.69999 14.7357 5.69999 14.6419 5.69999H14.548H14.3603H14.2664H14.1726H14.0787H13.9848H13.891H13.7971H13.7033H13.6094H13.5155H13.4217H13.3278H13.234H13.1401H13.0463C12.577 5.88999 12.3892 5.98499 12.3892 5.98499C12.4831 5.79499 12.577 5.69999 12.6708 5.60499C12.7647 5.50999 12.7647 5.41499 12.8585 5.41499C12.9524 5.22499 13.0463 5.12999 13.1401 4.93999C13.1401 4.93999 13.1401 4.93999 13.1401 4.84499C13.0463 4.74999 13.0463 4.74999 12.9524 4.65499L12.8585 4.55999L12.7647 4.46499L12.6708 4.36999L12.577 4.27499L12.4831 4.17999L12.3892 4.08499L12.2954 3.98999L12.2015 3.89499L12.1077 3.79999L12.0138 3.70499L11.9199 3.60999L12.2015 4.08499L12.1077 3.98999L12.0138 3.89499L11.9199 3.79999L11.8261 3.70499L11.7322 3.60999L11.6384 3.51499L11.5445 3.41999C11.5445 3.41999 11.4506 3.41999 11.4506 3.32499L11.3568 3.22999C11.3568 3.22999 11.2629 3.22999 11.2629 3.13499L11.1691 3.03999L11.0752 2.94499L10.9813 2.84999L10.8875 2.75499L10.7936 2.65999C10.7936 2.65999 10.6998 2.65999 10.6998 2.56499C10.6998 2.56499 10.6059 2.56499 10.6059 2.46999L10.3243 2.65999C10.3243 2.65999 10.2305 2.65999 10.2305 2.56499C10.2305 2.56499 10.1366 2.56499 10.1366 2.46999C10.1366 2.46999 10.0427 2.46999 10.0427 2.37499H9.94888C9.94888 2.37499 9.85502 2.37499 9.85502 2.27999H9.76116H9.6673H9.57344H9.47959H9.38573H9.29187H9.19801H9.10415H9.01029H8.91643H8.82257H8.72871H8.63485L8.72871 1.89999H8.63485H8.54099H8.44713H8.35327H8.25941H8.16555H8.07169H7.97783H7.88397H7.79011C7.79011 1.89999 7.79011 1.89999 7.69625 1.89999C7.69625 1.89999 7.69625 1.89999 7.60239 1.89999H7.69625H7.60239L7.50853 1.80499H7.41467H7.32081H7.22695V1.89999C7.22695 1.89999 7.22695 1.89999 7.13309 1.89999V1.89999H7.03923C7.03923 1.89999 7.03923 1.89999 6.94537 1.89999H6.85151H6.75765H6.6638H6.56994V1.99499H6.47608H6.38222H6.28836H6.1945H6.10064H6.00678H5.91292C5.7252 2.46999 5.53748 2.65999 5.34976 2.84999C5.2559 2.94499 5.2559 3.03999 5.16204 3.13499C4.97432 3.41999 4.69274 3.79999 4.50502 4.27499C4.3173 4.46499 4.22344 4.65499 4.12958 4.93999C3.37871 6.55499 2.81555 8.35999 2.44011 10.26C2.25239 11.4 2.06467 12.445 1.97081 13.49C1.87695 13.775 1.87695 14.06 1.87695 14.345C1.87695 14.44 1.97081 14.44 2.06467 14.535C2.15853 14.63 2.25239 14.63 2.34625 14.63C2.44011 14.63 2.53397 14.63 2.62783 14.63C3.47257 14.44 3.56643 13.3 3.56643 13.3C3.37871 9.11999 5.16204 5.98499 6.1945 4.55999C6.28836 4.46499 6.28836 4.36999 6.38222 4.36999C6.47608 4.17999 6.75765 4.08499 6.94537 3.98999C7.13309 3.89499 7.41467 3.98999 7.60239 3.98999C7.97783 4.17999 8.35327 4.46499 8.63485 4.74999C8.82257 4.93999 8.91643 5.03499 9.01029 5.22499C9.6673 5.98499 9.94888 6.93499 10.0427 7.50499C10.0427 7.59999 10.0427 7.78999 10.0427 7.88499C9.94888 7.97999 9.85502 8.07499 9.76116 8.16999C9.29187 8.45499 8.82257 8.73999 8.44713 9.11999C8.35327 9.21499 3.00327 15.96 3.66029 23.845C3.66029 23.94 3.66029 24.13 3.66029 24.225C3.75415 24.51 3.75415 24.7 3.75415 24.89C4.7866 25.27 5.91292 25.935 7.69625 26.505C11.2629 27.645 14.1726 25.555 15.5805 22.895C16.8945 20.33 18.7717 20.33 18.7717 20.33C18.7717 20.33 19.241 20.33 19.898 20.615C20.555 20.9 21.3059 21.565 21.9629 22.895C23.3708 25.555 26.2805 27.645 29.8471 26.505C31.6305 25.935 32.7568 25.175 33.7892 24.89C33.7892 24.7 33.8831 24.51 33.8831 24.32C33.8831 24.225 33.8831 24.035 33.8831 23.94C34.5401 15.96 29.1901 9.30999 29.0963 9.21499C28.627 8.83499 28.1577 8.54999 27.6884 8.35999C27.5945 8.26499 27.5006 8.16999 27.4068 8.07499C27.3129 7.97999 27.3129 7.78999 27.4068 7.69499C27.5945 7.12499 27.8761 6.17499 28.4392 5.41499C28.5331 5.22499 28.7208 5.12999 28.8147 4.93999C29.0963 4.65499 29.4717 4.36999 29.941 4.17999C30.1287 4.08499 30.4103 4.08499 30.598 4.17999C30.7857 4.27499 30.9734 4.36999 31.1612 4.55999C31.255 4.65499 31.255 4.65499 31.3489 4.74999C32.2875 6.17499 34.1647 9.30999 34.0708 13.49C34.0708 13.49 34.1647 14.63 35.0094 14.82C35.1033 14.82 35.1971 14.82 35.291 14.82C35.3848 14.82 35.4787 14.725 35.5726 14.725C35.6664 14.725 35.6664 14.63 35.7603 14.535C35.6664 14.06 35.6664 13.775 35.5726 13.49Z" fill="#113CFC"/>
<path d="M12.3897 14.915C12.5775 15.2 12.7652 15.485 13.0468 15.675C13.7038 16.245 14.5485 16.435 15.2055 16.055C16.0503 15.58 16.1441 14.25 15.4871 13.11V13.015C14.8301 11.875 13.6099 11.4 12.7652 11.875H12.6713C11.7327 12.445 11.6389 13.775 12.3897 14.915Z" fill="white"/>
<path d="M5.63189 10.64C6.94593 8.36 9.19856 5.225 6.19505 4.56C5.25645 5.985 3.37926 9.12 3.47312 13.3C3.47312 13.3 4.31786 12.92 5.63189 10.64Z" fill="white"/>
<path d="M8.63525 4.75C8.82297 4.94 8.91683 5.035 9.01069 5.225C8.91683 5.035 8.82297 4.94 8.63525 4.75Z" fill="white"/>
<path d="M8.44722 9.12001C8.91652 8.74001 9.38581 8.45501 9.85511 8.26501C9.94897 8.17001 10.0428 8.07501 10.1367 7.98001C10.2306 7.88501 10.2306 7.69501 10.1367 7.60001C9.94897 7.03001 9.66739 6.08001 9.10424 5.32001C8.91652 5.13001 8.82266 4.94001 8.63494 4.75001C8.35336 4.46501 7.97792 4.18001 7.50862 3.99001C7.3209 3.89501 7.03932 3.89501 6.8516 3.99001C6.66388 3.99001 6.47616 4.18001 6.28845 4.37001C6.28845 4.37001 6.19459 4.46501 6.19459 4.56001C9.1981 5.22501 6.94546 8.45501 5.63143 10.64C4.31739 12.92 3.47266 13.3 3.47266 13.3C3.47266 13.87 3.56652 14.535 3.66038 15.105C3.66038 15.2 3.66038 15.2 3.75424 15.2L3.84809 15.295C3.94195 15.295 3.94195 15.295 4.03581 15.295L4.12967 15.2C4.69283 13.775 6.10073 10.925 8.44722 9.12001Z" fill="#DBBDBF"/>
<path d="M3.28524 24.7C3.47296 24.7 3.66068 24.795 3.75453 24.795C3.75453 24.7 3.75454 24.51 3.66068 24.225C3.66068 24.13 3.66068 23.94 3.66068 23.845C2.9098 15.865 8.35366 9.215 8.44752 9.12C6.10103 10.925 4.69313 13.775 4.12997 15.2L4.03611 15.295C4.03611 15.295 3.94225 15.295 3.84839 15.295C3.75453 15.295 3.75453 15.295 3.75453 15.2L3.66068 15.105C3.56682 14.535 3.47296 13.87 3.47296 13.3C3.47296 13.3 3.3791 14.44 2.53436 14.63C2.4405 14.63 2.34664 14.63 2.25278 14.63C2.15892 14.63 2.06506 14.535 1.9712 14.535C1.87734 14.535 1.87734 14.44 1.78348 14.345C1.59576 16.435 1.59576 18.24 1.59576 19.19C1.59576 19.57 1.59576 19.855 1.59576 19.855V19.95C1.59576 19.95 1.59576 19.95 1.59576 20.045C1.59576 20.045 1.12646 21.66 1.12646 23.845C1.12646 24.13 1.12646 24.32 1.12646 24.605C1.12646 24.795 1.12646 24.985 1.12646 25.175C1.9712 24.7 2.62822 24.605 3.28524 24.7Z" fill="#193498"/>
<path d="M15.2054 30.21C16.9887 29.925 17.9273 29.26 18.3028 28.88V27.55C17.7396 27.455 17.2703 27.265 16.801 26.98L16.7071 26.885C16.6133 26.79 16.6133 26.79 16.5194 26.695C15.9563 26.22 15.5808 25.555 15.487 24.985C15.6747 27.17 17.6457 27.74 17.6457 27.74C17.6457 27.74 17.7396 28.31 17.6457 28.595C17.5519 28.88 16.9887 29.545 15.0177 29.83C12.9528 30.115 12.0142 29.07 12.0142 29.07C12.0142 29.07 12.8589 30.59 15.2054 30.21Z" fill="#DBBDBF"/>
<path d="M13.1405 6.46001C13.0466 6.55501 12.9527 6.74501 12.8589 6.84001C13.0466 6.74501 13.2343 6.65001 13.5159 6.55501H13.6098H13.7036H13.7975H13.8913H13.9852H14.0791H14.1729C14.1729 6.55501 14.1729 6.55501 14.2668 6.55501H14.3606H14.4545H14.5484H14.6422H14.7361H14.8299H15.0177H15.1115C15.2054 6.55501 15.2054 6.55501 15.2992 6.55501H15.3931C15.487 6.55501 15.487 6.55501 15.5808 6.55501H15.6747C15.7685 6.55501 15.7685 6.55501 15.8624 6.55501H15.9563C16.0501 6.55501 16.0501 6.55501 16.144 6.55501H16.2378C16.3317 6.55501 16.3317 6.55501 16.4256 6.55501H16.5194C16.6133 6.55501 16.7071 6.55501 16.7071 6.55501H16.801C16.8949 6.55501 16.9887 6.55501 16.9887 6.55501H17.0826C17.1764 6.55501 17.2703 6.55501 17.3642 6.55501H17.458H17.7396H17.8334C17.9273 6.55501 18.0212 6.55501 18.115 6.55501H18.2089C18.3027 6.55501 18.3966 6.55501 18.4905 6.55501H18.5843C18.6782 6.55501 18.772 6.55501 18.8659 6.55501H18.9598C19.0536 6.55501 19.1475 6.55501 19.2413 6.55501C19.8045 6.55501 20.2738 6.55501 20.837 6.65001C21.4001 6.65001 21.9633 6.74501 22.6203 6.84001C24.4036 7.22001 25.2484 7.69501 25.2484 7.69501C25.1545 7.50501 25.0606 7.41001 24.9668 7.31501C24.8729 7.22001 24.8729 7.12501 24.7791 7.12501C24.7791 7.12501 24.4975 6.84001 23.8405 6.65001C22.9957 6.27001 21.494 5.79501 19.3352 5.79501C17.1764 5.79501 15.6747 6.27001 14.8299 6.65001C14.2668 6.93501 13.8913 7.12501 13.8913 7.12501C13.3282 6.27001 13.2343 6.36501 13.1405 6.46001Z" fill="#1597E5"/>
<path d="M5.3501 2.85001C5.53782 2.66001 5.72554 2.47001 6.00712 2.28001H6.10098H6.19483H6.28869H6.38255H6.47641H6.57027H6.66413H6.75799H6.85185H6.94571H7.03957H7.13343H7.22729C7.22729 2.28001 7.22729 2.28001 7.32115 2.28001H7.41501H7.50887H7.60273C7.60273 2.28001 7.60273 2.28001 7.69659 2.28001H7.79045H7.88431H7.97817H8.07203H8.16589H8.25975H8.35361H8.44747H8.54133H8.63519C8.63519 2.28001 8.63519 2.28001 8.72905 2.28001H8.8229H8.91676H9.01062H9.10448H9.19834H9.2922L8.44747 1.90001H8.54133H8.63519H8.72905H8.8229H8.91676H9.01062H9.10448H9.19834H9.2922H9.38606H9.47992H9.57378H9.66764H9.7615H9.85536H9.94922H10.0431C10.0431 1.90001 10.1369 1.90001 10.1369 1.99501H10.2308C10.2308 1.99501 10.3247 1.99501 10.3247 2.09001C10.3247 2.09001 10.4185 2.09001 10.4185 2.18501C10.4185 2.18501 10.5124 2.18501 10.5124 2.28001L10.6062 2.37501C10.6062 2.37501 10.7001 2.37501 10.7001 2.47001C10.7001 2.47001 10.794 2.47001 10.794 2.56501L10.8878 2.66001L10.9817 2.75501L11.0755 2.85001L11.1694 2.94501L11.2633 3.04001C11.2633 3.04001 11.3571 3.04001 11.3571 3.13501L11.451 3.23001C11.451 3.23001 11.5448 3.23001 11.5448 3.32501L11.6387 3.42001C11.6387 3.42001 11.7326 3.42001 11.7326 3.51501L11.8264 3.61001L11.9203 3.70501L12.0141 3.80001L12.108 3.89501L12.2019 3.99001L12.2957 4.08501L12.3896 4.18001L12.4834 4.27501L12.5773 4.37001L12.6712 4.46501L12.765 4.56001L12.8589 4.65501L12.9527 4.75001L13.0466 4.84501L13.1404 4.94001L13.2343 5.03501L13.3282 5.13001C13.422 5.22501 13.422 5.22501 13.5159 5.32001C13.7975 4.94001 14.1729 4.56001 14.5483 4.27501C13.2343 2.94501 11.9203 1.90001 10.7001 1.33001C10.6062 1.23501 10.5124 1.23501 10.4185 1.23501C10.4185 1.23501 10.3247 1.23501 10.3247 1.14001C10.3247 1.14001 10.3247 1.14001 10.2308 1.14001H10.1369C10.0431 1.14001 10.0431 1.14001 9.94922 1.04501C9.2922 0.85501 8.72905 0.76001 8.16589 0.76001C7.69659 0.76001 7.13343 0.95001 6.75799 1.14001C6.38255 1.80501 5.8194 2.28001 5.3501 2.85001Z" fill="#1597E5"/>
<path d="M22.3383 15.96C22.9953 16.34 23.8401 16.15 24.4971 15.58C24.6848 15.39 24.9664 15.2 25.0602 14.915C25.0602 14.915 25.0602 14.915 25.0602 14.82C25.7173 13.68 25.6234 12.35 24.7787 11.78C24.7787 11.78 24.7787 11.78 24.6848 11.78C23.8401 11.305 22.6199 11.78 21.9629 12.92C21.9629 12.92 21.9629 12.92 21.9629 13.015C21.3997 14.155 21.4936 15.485 22.3383 15.96Z" fill="white"/>
<path d="M31.9124 10.64C33.2264 12.825 33.9773 13.205 34.0711 13.3C34.165 9.12 32.3817 5.985 31.3492 4.56C28.3457 5.225 30.5983 8.455 31.9124 10.64Z" fill="white"/>
<path d="M28.5332 5.225C28.6271 5.035 28.8148 4.94 28.9086 4.75C28.7209 4.94 28.6271 5.035 28.5332 5.225Z" fill="white"/>
<path d="M20.4616 32.11C20.4616 32.015 20.3677 31.92 20.18 31.825C20.18 31.825 20.18 31.825 20.0861 31.825C20.0861 31.825 20.0861 31.825 19.9923 31.825C19.8984 31.825 19.7107 31.73 19.6168 31.825C19.6168 31.825 19.6168 31.825 19.523 31.825H19.4291C19.4291 31.825 19.4291 31.825 19.3353 31.825C19.2414 31.825 19.1475 31.92 19.0537 32.015C18.9598 32.11 18.866 32.205 18.866 32.3C18.6782 31.92 18.3967 31.73 18.0212 31.73C17.7396 31.73 17.4581 31.825 17.2703 32.015C17.1765 32.11 17.1765 32.11 17.1765 32.205C17.1765 32.3 17.0826 32.395 17.1765 32.585C17.1765 32.68 17.2703 32.775 17.3642 32.87C17.4581 32.965 17.5519 33.06 17.6458 33.06C18.1151 33.25 18.4905 33.345 18.9598 33.25C19.4291 33.25 19.8984 33.155 20.2739 33.06C20.18 32.965 20.6493 32.68 20.4616 32.11Z" fill="#FF9C9C"/>
<path d="M33.508 15.105L33.6018 15.2C33.6018 15.2 33.6957 15.2 33.7896 15.2C33.8834 15.2 33.8834 15.2 33.8834 15.105L33.9773 15.01C34.0711 14.44 34.165 13.775 34.165 13.205C34.165 13.205 33.3203 12.825 32.0062 10.545C30.6922 8.265 28.4396 5.13 31.4431 4.46501C31.3492 4.37001 31.3492 4.27501 31.2554 4.27501C31.1615 4.08501 30.8799 3.99001 30.6922 3.89501C30.5045 3.80001 30.2229 3.89501 30.0352 3.89501C29.6597 4.08501 29.2843 4.37001 28.9089 4.65501C28.7212 4.84501 28.6273 4.94001 28.5334 5.13001C27.8764 5.89001 27.5948 6.84 27.501 7.41C27.501 7.505 27.501 7.695 27.501 7.79C27.501 7.885 27.6887 7.98 27.7826 8.075C28.2519 8.36 28.7212 8.645 29.1905 8.93C31.4431 10.925 32.851 13.775 33.508 15.105Z" fill="#DBBDBF"/>
<path d="M35.6665 14.345C35.6665 14.44 35.5726 14.44 35.4788 14.535C35.3849 14.63 35.291 14.63 35.1972 14.63C35.1033 14.63 35.0095 14.63 34.9156 14.63C34.1647 14.44 33.977 13.3 33.977 13.3C33.977 13.87 33.8831 14.535 33.7893 15.105C33.7893 15.2 33.7893 15.2 33.6954 15.2L33.6016 15.295C33.5077 15.295 33.5077 15.295 33.4138 15.295L33.32 15.2C32.7568 13.87 31.3489 10.925 29.0024 9.12C29.0963 9.215 34.4463 15.96 33.7893 23.845C33.7893 23.94 33.7893 24.13 33.7893 24.225C33.7893 24.415 33.6954 24.605 33.6954 24.795C33.8831 24.7 34.0709 24.7 34.1647 24.7C34.8217 24.605 35.4788 24.7 36.2296 25.175C36.2296 24.985 36.2296 24.795 36.2296 24.605C36.2296 24.32 36.2296 24.13 36.2296 23.845C36.2296 21.66 35.7603 20.045 35.7603 20.045C35.7603 20.045 35.7603 20.045 35.7603 19.95V19.855C35.7603 19.855 35.7603 19.57 35.7603 19.19C35.9481 18.24 35.8542 16.435 35.6665 14.345Z" fill="#193498"/>
<path d="M21.0245 26.695C20.9307 26.79 20.9307 26.79 20.8368 26.885L20.743 26.98C20.2737 27.265 19.8044 27.455 19.2412 27.55V28.88C19.7105 29.26 20.5552 29.925 22.3386 30.21C24.6851 30.495 25.5298 29.07 25.5298 29.07C25.5298 29.07 24.5912 30.115 22.5263 29.83C20.4614 29.545 19.8982 28.88 19.8982 28.595C19.8044 28.31 19.8982 27.74 19.8982 27.74C19.8982 27.74 21.9631 27.17 22.057 24.985C21.9631 25.555 21.5877 26.22 21.0245 26.695Z" fill="#DBBDBF"/>
<path d="M30.5041 1.89999C31.1611 1.99499 31.8181 2.37499 32.1936 2.94499C31.7243 2.37499 31.1611 1.89999 30.598 1.61499C30.1287 1.42499 29.6594 1.23499 29.1901 1.23499C28.6269 1.23499 28.0638 1.32999 27.4067 1.51999C27.3129 1.51999 27.3129 1.51999 27.219 1.61499C27.219 1.61499 27.219 1.61499 27.1252 1.61499C27.1252 1.61499 27.1252 1.61499 27.0313 1.61499C26.9374 1.61499 26.8436 1.70999 26.7497 1.70999H26.6559C25.4357 2.27999 24.1217 3.32499 22.8076 4.65499C23.1831 4.93998 23.5585 5.22498 23.8401 5.69998C26.9374 2.08999 29.0962 1.61499 30.5041 1.89999Z" fill="#1597E5"/>
<path d="M18.7719 31.445C17.2701 30.875 16.5193 31.92 16.3315 32.205C16.6131 32.49 16.9886 32.775 17.4579 32.965C17.364 32.87 17.2701 32.87 17.1763 32.775C17.0824 32.68 17.0824 32.585 16.9886 32.49C16.9886 32.395 16.9886 32.205 16.9886 32.11C16.9886 32.015 17.0824 32.015 17.0824 31.92C17.2701 31.73 17.5517 31.635 17.8333 31.635C18.2087 31.635 18.5842 31.825 18.678 32.205C18.678 32.11 18.7719 32.015 18.8658 31.92C18.9596 31.825 19.0535 31.73 19.1473 31.73C19.1473 31.73 19.1473 31.73 19.2412 31.73C19.2412 31.73 19.2412 31.73 19.3351 31.73C19.4289 31.73 19.6166 31.73 19.7105 31.73C19.7105 31.73 19.7105 31.73 19.8044 31.73C19.8044 31.73 19.8044 31.73 19.8982 31.73C19.9921 31.825 20.0859 31.92 20.1798 32.015C20.3675 32.585 19.8982 32.87 19.8044 32.87C20.1798 32.68 20.5552 32.49 20.9307 32.11C21.0245 31.92 20.2736 30.97 18.7719 31.445Z" fill="#E06E6E"/>
<path d="M8.4473 34.77C9.3859 35.245 10.4184 35.625 11.4508 35.91C12.7648 36.29 14.0789 36.575 15.3929 36.67C15.9561 36.765 16.5192 36.765 17.0824 36.86C17.5517 36.86 18.021 36.86 18.4903 36.955C18.5841 36.955 18.678 36.955 18.7719 36.955C18.9596 36.955 19.1473 36.955 19.335 36.955C19.4289 36.955 19.4289 36.955 19.5227 36.955C20.0859 36.955 20.6491 36.955 21.1184 36.86C21.2122 36.86 21.2122 36.86 21.3061 36.86H21.4938H21.5877C21.6815 36.86 21.6815 36.86 21.7754 36.86C24.9666 36.48 27.7824 35.625 30.1289 34.295C30.1289 34.295 30.2227 34.295 30.2227 34.2L30.3166 34.105C31.1613 33.63 31.9122 33.06 32.6631 32.395C33.2262 31.92 33.6955 31.445 34.1648 30.875C34.2587 30.78 34.2587 30.78 34.3526 30.685C34.6341 30.305 34.9157 29.925 35.1973 29.545C35.5727 28.975 35.7605 28.31 35.9482 27.645C36.1359 26.98 36.3236 26.22 36.4175 25.555C36.4175 25.46 36.4175 25.365 36.4175 25.27C35.5727 24.795 35.0096 24.7 34.3526 24.795C34.1648 24.795 33.9771 24.89 33.8833 24.89C32.6631 32.205 25.0605 35.435 18.8657 35.435C15.7684 35.435 12.2955 34.675 9.47976 32.965C6.66397 31.255 4.41133 28.595 3.84818 24.985C3.66046 24.89 3.47274 24.89 3.37888 24.89C2.72186 24.795 2.06484 24.89 1.31396 25.365C1.31396 25.46 1.31396 25.555 1.31396 25.65C1.40782 26.41 1.50168 27.075 1.78326 27.74C1.78326 28.025 1.87712 28.5 2.06484 28.88C2.1587 29.07 2.25256 29.26 2.34642 29.545C2.34642 29.545 2.34642 29.64 2.44028 29.64C2.628 30.02 2.90958 30.4 3.19116 30.78C4.59905 32.395 6.38239 33.725 8.4473 34.77Z" fill="#DBBDBF"/>
<path d="M25.5298 29.07C25.5298 29.07 24.685 30.59 22.3385 30.21C20.5552 29.925 19.6166 29.26 19.2412 28.88V27.55C19.8043 27.455 20.2736 27.265 20.7429 26.98L20.8368 26.885C20.9307 26.79 20.9307 26.79 21.0245 26.695C21.5877 26.22 21.9631 25.555 22.057 24.985C22.057 24.89 22.057 24.89 22.057 24.795C22.057 23.465 20.5552 22.42 18.7719 22.42C16.9885 22.42 15.4868 23.465 15.4868 24.795C15.4868 24.89 15.4868 24.89 15.4868 24.985C15.5807 25.555 15.9561 26.22 16.5192 26.695C16.6131 26.79 16.6131 26.79 16.707 26.885L16.8008 26.98C17.2701 27.265 17.7394 27.455 18.3026 27.55V28.88C17.8333 29.26 16.9885 29.925 15.2052 30.21C12.8587 30.495 12.014 29.07 12.014 29.07C12.014 29.07 11.8263 31.35 14.5482 31.35H14.6421C14.8298 31.825 15.0175 32.205 15.2991 32.585C15.8622 33.345 16.9885 34.295 18.8657 34.295C20.7429 34.295 21.8692 33.345 22.4324 32.585C22.714 32.205 22.9017 31.825 23.0894 31.35H23.1833C25.7175 31.35 25.5298 29.07 25.5298 29.07ZM20.0859 32.965C19.6166 33.155 19.2412 33.25 18.7719 33.155C18.3026 33.155 17.8333 33.06 17.4578 32.965C17.364 32.87 17.2701 32.87 17.1763 32.775C17.2701 32.87 17.364 32.965 17.4578 32.965C17.0824 32.775 16.707 32.585 16.3315 32.205C16.5192 31.92 17.2701 30.97 18.7719 31.445C20.2736 30.875 21.0245 31.92 21.2122 32.205C20.9307 32.49 20.5552 32.775 20.0859 32.965Z" fill="black"/>
<path d="M25.2481 36.1H28.627C28.627 36.1 28.1577 36.29 27.97 36.385C27.7823 36.48 27.5946 36.48 27.4069 36.575C27.2191 36.67 27.0314 36.67 26.8437 36.765H26.7498C26.5621 36.86 26.4683 36.86 26.2805 36.86L26.0928 37.05C25.999 37.05 25.8112 37.145 25.7174 37.145C25.6235 37.145 25.6235 37.145 25.5297 37.145C25.3419 37.145 25.1542 37.24 24.9665 37.24C24.7788 37.24 24.5911 37.335 24.4033 37.335C24.3095 37.335 24.3095 37.335 24.2156 37.335C24.1218 37.335 23.934 37.43 23.8402 37.43H23.6525C23.4647 37.43 23.277 37.525 23.0893 37.525C22.4323 37.62 21.6814 37.715 20.9305 37.715C20.2735 37.905 19.5226 38 18.7718 38C17.3639 38 15.8621 37.905 14.4542 37.715C14.2665 37.715 14.0788 37.62 13.8911 37.62H13.7033C13.6095 37.62 13.4218 37.525 13.3279 37.525C13.234 37.525 13.234 37.525 13.1402 37.525C12.9525 37.525 12.7647 37.43 12.577 37.43C12.3893 37.43 12.2016 37.335 12.0139 37.335C11.92 37.335 11.92 37.335 11.8262 37.335C11.7323 37.335 11.5446 37.24 11.4507 37.24L11.263 36.955C11.0753 36.955 10.9814 36.86 10.7937 36.86H10.6998C10.3244 36.765 9.94896 36.575 9.57352 36.48C9.3858 36.29 9.10422 36.195 8.9165 36.1H12.2955C13.3279 36.385 14.3604 36.575 15.3928 36.67C15.956 36.765 16.5191 36.765 17.0823 36.86C17.5516 36.86 18.0209 36.86 18.4902 36.955C18.584 36.955 18.6779 36.955 18.7718 36.955C18.9595 36.955 19.1472 36.955 19.3349 36.955C19.4288 36.955 19.4288 36.955 19.5226 36.955C20.0858 36.955 20.649 36.955 21.1183 36.86C21.2121 36.86 21.2121 36.86 21.306 36.86H21.4937H21.5876C21.6814 36.86 21.6814 36.86 21.7753 36.86C22.9955 36.575 24.1218 36.385 25.2481 36.1Z" fill="black"/>
<path d="M35.1035 31.35C33.6018 33.155 31.8184 34.58 29.5658 35.625H26.75C27.9702 35.245 29.0965 34.77 30.1289 34.105C30.1289 34.105 30.2228 34.105 30.2228 34.01L30.3167 33.915C31.1614 33.44 31.9123 32.87 32.6632 32.205C33.2263 31.73 33.6956 31.255 34.1649 30.685C34.2588 30.59 34.2588 30.59 34.3526 30.495C34.6342 30.115 34.9158 29.735 35.1974 29.355C35.5728 28.785 35.7605 28.12 35.9482 27.455C36.136 26.79 36.3237 26.03 36.4175 25.365C36.4175 25.27 36.4175 25.175 36.4175 25.08C36.4175 24.89 36.4175 24.7 36.4175 24.51C36.4175 24.225 36.4175 24.035 36.4175 23.75C36.4175 21.565 35.9482 19.95 35.9482 19.95C35.9482 19.95 35.9482 19.95 35.9482 19.855V19.76C35.9482 19.76 35.9482 19.475 35.9482 19.095C35.9482 18.145 35.9482 16.34 35.7605 14.25C35.7605 13.965 35.6667 13.68 35.6667 13.395C35.3851 10.545 34.7281 7.31499 33.5079 4.84499C33.414 4.65499 33.3202 4.46499 33.2263 4.27499C33.0386 3.89499 32.757 3.41999 32.4754 3.03999C32.3816 2.94499 32.3816 2.94499 32.2877 2.84999C31.8184 2.27999 31.2553 1.80499 30.6921 1.51999C30.2228 1.32999 29.7535 1.13999 29.2842 1.13999C28.7211 1.13999 28.1579 1.23499 27.5009 1.42499C27.407 1.42499 27.407 1.42499 27.3132 1.51999C27.3132 1.51999 27.3132 1.51999 27.2193 1.51999C27.2193 1.51999 27.2193 1.51999 27.1254 1.51999C27.0316 1.51999 26.9377 1.61499 26.8439 1.61499H26.75C25.5298 2.18499 24.2158 3.22999 22.9018 4.55999C23.0895 4.74999 23.2772 4.93999 23.4649 5.12999C23.7465 5.41499 23.9342 5.79499 24.1219 6.07999C24.1219 6.17499 24.2158 6.17499 24.2158 6.17499C24.2158 6.17499 23.9342 5.88999 23.2772 5.69999C22.4325 5.31999 20.9307 4.84499 18.7719 4.84499C16.6132 4.84499 15.1114 5.31999 14.2667 5.69999C13.7035 5.98499 13.3281 6.17499 13.3281 6.17499C13.4219 5.98499 13.5158 5.88999 13.6096 5.69999V5.60499C13.8912 5.22499 14.2667 4.84499 14.6421 4.55999C13.3281 3.22999 12.014 2.18499 10.7939 1.61499C10.7 1.51999 10.6061 1.51999 10.5123 1.51999C10.5123 1.51999 10.4184 1.51999 10.4184 1.42499C10.4184 1.42499 10.4184 1.42499 10.3246 1.42499H10.2307C10.1368 1.42499 10.1368 1.42499 10.043 1.32999C9.38596 1.13999 8.82281 1.04499 8.25965 1.04499C7.79035 1.04499 7.22719 1.23499 6.85175 1.42499C6.38246 1.80499 5.8193 2.27999 5.35 2.84999C5.35 2.94499 5.25614 3.03999 5.16228 3.13499C4.97456 3.41999 4.69298 3.79999 4.50526 4.27499C4.31754 4.46499 4.22368 4.65499 4.12982 4.93999C3.37895 6.55499 2.81579 8.35999 2.44035 10.26C2.25263 11.4 2.06491 12.445 1.97105 13.49C1.87719 13.775 1.87719 14.06 1.87719 14.345C1.68947 16.435 1.68947 18.24 1.68947 19.19C1.68947 19.57 1.68947 19.855 1.68947 19.855V19.95C1.68947 19.95 1.68947 19.95 1.68947 20.045C1.68947 20.045 1.22018 21.66 1.22018 23.845C1.22018 24.13 1.22018 24.32 1.22018 24.605C1.22018 24.795 1.22018 24.985 1.22018 25.175C1.22018 25.27 1.22018 25.365 1.22018 25.46C1.31404 26.22 1.40789 26.885 1.59561 27.55C1.78333 28.025 1.87719 28.5 2.06491 28.88C2.15877 29.07 2.25263 29.26 2.34649 29.545C2.34649 29.545 2.34649 29.64 2.44035 29.64C2.62807 30.02 2.90965 30.4 3.19123 30.78C4.59912 32.49 6.38246 33.82 8.44737 34.865C9.19825 35.245 9.94912 35.53 10.7939 35.815H7.97807C5.8193 34.77 3.94211 33.25 2.44035 31.54C0.844737 29.45 0 26.885 0 23.75C0 21.755 0.375439 20.14 0.563158 19.76C0.563158 19.285 0.469298 16.53 0.844737 13.3C1.40789 8.45499 2.53421 4.74999 4.31754 2.46999C5.44386 0.949987 6.75789 0.0949869 8.35351 0.0949869C9.7614 -1.30897e-05 11.357 0.569987 13.0465 1.80499C14.2667 2.75499 15.2991 3.79999 15.7684 4.27499C16.6132 4.08499 17.5518 3.89499 18.8658 3.89499C20.086 3.89499 21.1184 4.08499 21.9632 4.27499C22.4325 3.79999 23.4649 2.75499 24.6851 1.80499C26.3746 0.569987 27.9702 -1.30897e-05 29.3781 0.0949869C30.8798 0.189987 32.2877 1.04499 33.3202 2.46999C35.1035 4.84499 36.2298 8.45499 36.793 13.3C37.1684 16.625 37.0746 19.285 37.0746 19.76C37.1684 20.14 37.5439 21.755 37.6377 23.75C37.5439 26.885 36.6991 29.45 35.1035 31.35Z" fill="black"/>
<path d="M11.7327 23.465C13.2344 23.465 14.4546 21.945 14.4546 19.95C14.4546 18.05 13.2344 16.435 11.7327 16.435C10.2309 16.435 9.01074 17.955 9.01074 19.95C9.01074 21.945 10.2309 23.465 11.7327 23.465Z" fill="black"/>
<path d="M26.0932 23.465C27.595 23.465 28.8151 21.945 28.8151 19.95C28.8151 18.05 27.595 16.435 26.0932 16.435C24.5915 16.435 23.3713 17.955 23.3713 19.95C23.2774 21.945 24.4976 23.465 26.0932 23.465Z" fill="black"/>
<path d="M12.3895 19.855C12.8588 19.855 13.2343 19.38 13.2343 18.715C13.2343 18.05 12.8588 17.575 12.3895 17.575C11.9202 17.575 11.5448 18.05 11.5448 18.715C11.4509 19.285 11.9202 19.855 12.3895 19.855Z" fill="white"/>
<path d="M25.5297 19.855C25.999 19.855 26.3744 19.38 26.3744 18.715C26.3744 18.05 25.999 17.575 25.5297 17.575C25.0604 17.575 24.6849 18.05 24.6849 18.715C24.5911 19.285 25.0604 19.855 25.5297 19.855Z" fill="white"/>
<path d="M29.5656 35.72L28.627 36.195H25.248L26.7498 35.72" fill="black"/>
<path d="M8.91662 36.1L7.97803 35.625H10.7938L12.2956 36.1" fill="black"/>
<path d="M126.804 14.535V17.955H135.064V22.99H126.804V29.45H120.14V9.49999H136.19V14.535H126.804ZM138.255 9.49999H144.919V24.225H153.836V29.45H138.255V9.49999ZM165.756 29.925C163.597 29.925 161.72 29.45 160.03 28.595C158.341 27.74 157.027 26.505 156.088 24.89C155.15 23.275 154.68 21.47 154.68 19.475C154.68 17.48 155.15 15.675 156.088 14.155C157.027 12.54 158.341 11.305 160.03 10.45C161.72 9.59499 163.597 9.12 165.756 9.12C167.915 9.12 169.792 9.59499 171.481 10.45C173.171 11.305 174.485 12.54 175.423 14.155C176.362 15.77 176.831 17.48 176.831 19.475C176.831 21.47 176.362 23.275 175.423 24.89C174.485 26.505 173.171 27.74 171.481 28.595C169.792 29.45 167.821 29.925 165.756 29.925ZM165.756 24.51C166.601 24.51 167.352 24.32 168.009 23.94C168.666 23.56 169.229 22.895 169.604 22.23C169.98 21.47 170.167 20.615 170.167 19.57C170.167 18.525 169.98 17.67 169.604 16.91C169.229 16.15 168.666 15.58 168.009 15.2C167.352 14.82 166.601 14.535 165.756 14.535C164.911 14.535 164.16 14.725 163.503 15.2C162.846 15.58 162.283 16.15 161.908 16.91C161.532 17.67 161.345 18.525 161.345 19.57C161.345 20.615 161.532 21.47 161.908 22.23C162.283 22.99 162.846 23.56 163.503 23.94C164.16 24.225 164.911 24.51 165.756 24.51ZM187.25 22.8L185.748 24.51V29.45H179.178V9.49999H185.748V16.72L192.224 9.49999H199.452L191.567 18.24L199.921 29.45H192.224L187.25 22.8ZM200.766 9.49999H207.43V29.45H200.766V9.49999Z" fill="#113CFC"/>
<path d="M100.524 29.45V9.5H115.729V14.63H106.249V16.815H114.603V21.85H106.249V24.32H116.011V29.45H100.524Z" fill="black"/>
<path d="M115.166 25.175V28.595H101.369V10.355H114.884V13.775H105.498V17.765H113.758V21.09H105.498V25.27H115.166V25.175Z" fill="black"/>
<path d="M86.8201 29.45C80.907 29.45 77.3403 26.03 77.3403 20.425V9.5H83.5351V20.235C83.5351 23.75 85.3184 24.225 86.8201 24.225C88.4158 24.225 90.1052 23.75 90.1052 20.235V9.5H96.2061V20.425C96.3 26.03 92.7333 29.45 86.8201 29.45Z" fill="black"/>
<path d="M79.8745 19.95V10.83H83.4412V19.76C83.4412 22.8 84.7552 24.13 86.8201 24.13C88.9789 24.13 90.1991 22.895 90.1991 19.76V10.83H93.6719V19.95C93.6719 24.7 91.0438 27.36 86.7263 27.36C82.5026 27.455 79.8745 24.795 79.8745 19.95Z" fill="black"/>
<path d="M60.0703 29.45V19.475V9.5H63.0738H66.1712V16.91V24.32H70.8642H75.5572V26.885V29.45H67.7668H60.0703Z" fill="black"/>
<path d="M62.7925 9.5H64.6697H66.5469V17.195V24.89H70.5828H74.6188V26.695V28.5H68.7056H62.7925V19V9.5Z" fill="black"/>
<path d="M41.6738 29.45V9.5H49.8396C53.8756 9.5 56.3159 11.59 56.3159 15.105C56.3159 16.625 55.8466 17.955 55.0019 18.905C56.3159 19.855 57.0668 21.565 57.0668 23.56C57.0668 27.265 54.6265 29.355 50.2151 29.355H41.6738V29.45ZM50.0273 24.51C52.0922 24.51 52.0922 23.56 52.0922 23.18C52.0922 22.8 52.0922 21.755 50.0273 21.755H46.6484V24.51H50.0273ZM49.3703 17.005C51.3414 17.005 51.3414 16.055 51.3414 15.675C51.3414 15.295 51.3414 14.44 49.3703 14.44H46.5545V17.005H49.3703Z" fill="black"/>
<path d="M56.3162 23.655C56.3162 26.79 54.2512 28.595 50.2153 28.595H42.3311V10.355H49.746C53.5942 10.355 55.4714 12.255 55.4714 15.105C55.4714 16.91 54.7205 18.335 53.4065 19.095C55.2837 19.76 56.3162 21.28 56.3162 23.655ZM45.8977 13.585V17.86H49.3705C51.06 17.86 51.9986 17.1 51.9986 15.675C51.9986 14.25 51.06 13.585 49.3705 13.585H45.8977ZM52.8433 23.18C52.8433 21.66 51.9047 20.9 50.0276 20.9H45.8977V25.365H50.0276C51.8109 25.365 52.8433 24.7 52.8433 23.18Z" fill="black"/>
</svg>
